<svg width="32" height="32" viewBox="0 0 32 32" fill="none" xmlns="http://www.w3.org/2000/svg">
<path d="M18.6097 1.61439C17.7629 1.46057 16.8908 1.38142 15.9992 1.38142C15.1076 1.38142 14.2354 1.46057 13.3887 1.61439C13.5022 1.53524 13.5963 1.40681 13.6679 1.19922C13.7113 1.07228 13.7814 0.84528 13.8472 0.62276C13.9577 0.249403 14.2564 0 14.5924 0H17.4075C17.742 0 18.0422 0.249403 18.1527 0.62276C18.2184 0.84528 18.2871 1.07228 18.3304 1.19922C18.4021 1.40681 18.4962 1.53524 18.6097 1.61439Z" fill="#0246D0"/>
<path d="M6.54265 4.85261C6.60388 4.72567 6.6218 4.56587 6.57999 4.34932C6.5546 4.21641 6.50084 3.98493 6.44558 3.75942C6.35597 3.38158 6.48889 3.01569 6.78011 2.84694L9.21887 1.44013C9.50859 1.27287 9.89241 1.33858 10.1747 1.60739C10.3434 1.76719 10.5167 1.92848 10.6182 2.01659C10.7825 2.15697 10.9259 2.22269 11.0618 2.23762C9.3936 2.83499 7.86732 3.72806 6.54265 4.85261Z" fill="#0246D0"/>
<path d="M4.85087 6.54374C3.72632 7.86692 2.83475 9.3917 2.23737 11.0569C2.22244 10.9225 2.15673 10.7806 2.01635 10.6193C1.92824 10.5163 1.76545 10.343 1.60566 10.1743C1.33833 9.892 1.27113 9.50968 1.43989 9.21846L2.84669 6.7797C3.01545 6.48998 3.38134 6.35557 3.75918 6.44667C3.98468 6.50043 4.21616 6.55419 4.34908 6.57958C4.56563 6.6214 4.72393 6.60497 4.85087 6.54374Z" fill="#0246D0"/>
<path d="M1.37993 15.9991C1.37993 16.8892 1.45908 17.7614 1.6129 18.6081C1.53375 18.4946 1.40531 18.402 1.19922 18.3319C1.07228 18.2871 0.845279 18.2184 0.622758 18.1526C0.249402 18.0421 0 17.7434 0 17.4074V14.5923C0 14.2563 0.249402 13.9576 0.622758 13.8471C0.845279 13.7814 1.07228 13.7112 1.19922 13.6679C1.40531 13.5962 1.53375 13.5036 1.6129 13.3916C1.45908 14.2384 1.37993 15.109 1.37993 15.9991Z" fill="#0246D0"/>
<path d="M4.84789 25.4526C4.72244 25.3943 4.56264 25.3779 4.34908 25.4197C4.21616 25.4451 3.98468 25.4989 3.75918 25.5526C3.37985 25.6437 3.01545 25.5093 2.84669 25.2181L1.43989 22.7808C1.27113 22.4896 1.33833 22.1058 1.60566 21.8235C1.76695 21.6563 1.92824 21.4815 2.01635 21.38C2.15673 21.2187 2.22244 21.0768 2.23737 20.9409C2.83475 22.6061 3.72632 24.1309 4.84789 25.4526Z" fill="#0246D0"/>
<path d="M10.2061 29.4244L10.0329 29.6858L9.44745 30.6401C9.3668 30.6281 9.29064 30.6012 9.21895 30.5594L6.78019 29.1511C6.49046 28.9839 6.35605 28.618 6.44715 28.2401C6.50092 28.0131 6.55468 27.7831 6.58007 27.6502C6.62188 27.4337 6.60396 27.2739 6.54572 27.1484C7.63891 28.0773 8.87098 28.848 10.2061 29.4244Z" fill="#0246D0"/>
<path d="M18.6081 30.3848C18.4946 30.4639 18.402 30.5938 18.3319 30.7984C18.2871 30.9269 18.2184 31.1539 18.1526 31.3764C18.0421 31.7498 17.7434 31.9992 17.4074 31.9992H14.5923C14.2563 31.9992 13.9576 31.7498 13.8471 31.3764C13.7814 31.1539 13.7112 30.9269 13.6679 30.7984C13.5962 30.5938 13.5036 30.4654 13.3916 30.3848C14.2384 30.5386 15.109 30.6177 15.9991 30.6177C16.8892 30.6177 17.7614 30.5386 18.6081 30.3848Z" fill="#0246D0"/>
<path d="M25.2177 29.1511L22.7804 30.5594C22.4892 30.7267 22.1054 30.661 21.8231 30.3922C21.6543 30.2324 21.4811 30.0711 21.3796 29.9815C21.2168 29.8396 21.0719 29.7754 20.9375 29.7619C22.6042 29.1646 24.1304 28.2715 25.4536 27.1484C25.3939 27.2739 25.376 27.4337 25.4178 27.6502C25.4432 27.7831 25.4969 28.0131 25.5522 28.2401C25.6433 28.618 25.5089 28.9839 25.2177 29.1511Z" fill="#0246D0"/>
<path d="M30.5594 22.7809L29.1511 25.2182C28.9839 25.5094 28.618 25.6438 28.2401 25.5527C28.0131 25.4974 27.7817 25.4452 27.6502 25.4183C27.4337 25.3765 27.2739 25.3944 27.1484 25.4541C28.2715 24.1309 29.1646 22.6047 29.7619 20.938C29.7754 21.0724 29.8396 21.2173 29.9815 21.38C30.0696 21.4816 30.2324 21.6548 30.3922 21.8236C30.6595 22.1058 30.7267 22.4897 30.5594 22.7809Z" fill="#0246D0"/>
<path d="M32.0001 14.5923V17.4074C32.0001 17.7434 31.7507 18.0421 31.3774 18.1526C31.1549 18.2184 30.9279 18.2871 30.7994 18.3319C30.5948 18.402 30.4649 18.4946 30.3857 18.6081C30.5396 17.7614 30.6187 16.8892 30.6187 15.9991C30.6187 15.109 30.5396 14.2384 30.3857 13.3916C30.4664 13.5036 30.5948 13.5962 30.7994 13.6679C30.9279 13.7127 31.1549 13.7814 31.3774 13.8471C31.7507 13.9576 32.0001 14.2563 32.0001 14.5923Z" fill="#0246D0"/>
<path d="M30.3927 10.1743C30.2329 10.343 30.0701 10.5163 29.982 10.6178C29.8401 10.7806 29.7759 10.9255 29.7624 11.0614C29.1651 9.39469 28.272 7.86692 27.1475 6.54374C27.2744 6.60497 27.4327 6.6214 27.6507 6.57958C27.7837 6.55419 28.0136 6.50043 28.2406 6.44667C28.6185 6.35557 28.9844 6.48998 29.1516 6.7797L30.5599 9.21846C30.7272 9.50819 30.66 9.892 30.3927 10.1743Z" fill="#0246D0"/>
<path d="M25.4183 4.34908C25.3765 4.56563 25.3944 4.72542 25.4541 4.85087C24.131 3.72782 22.6032 2.83475 20.9365 2.23738C21.0724 2.22394 21.2173 2.15822 21.3801 2.01635C21.4816 1.92824 21.6549 1.76695 21.8236 1.60566C22.1059 1.33833 22.4897 1.27113 22.7809 1.43989L25.2182 2.84669C25.5094 3.01545 25.6438 3.38134 25.5527 3.75918C25.4974 3.98469 25.4452 4.21617 25.4183 4.34908Z" fill="#0246D0"/>
<path d="M15.9982 1.88281C8.20104 1.88281 1.88086 8.20299 1.88086 16.0002C1.88086 21.841 5.42775 26.8544 10.4845 29.0019L10.7488 28.6017L11.8883 26.8753L12.2213 26.3705C7.98897 24.8278 4.96628 20.7672 4.96628 16.0002C4.96628 10.1624 9.50032 5.3834 15.2396 4.99511L15.934 4.37982L18.0457 2.50557L18.4967 2.10384C17.6858 1.95898 16.851 1.88281 15.9982 1.88281ZM20.7398 2.69972L20.6159 3.15521L20.0842 5.11757L19.9304 5.68955C24.0821 7.27408 27.0316 11.2929 27.0316 16.0002C27.0316 16.8917 26.9256 17.7594 26.7255 18.5898L27.1437 19.3096L27.4692 19.8711L26.8076 20.2818L25.9175 20.8344C24.1269 24.5052 20.3575 27.0336 15.9982 27.0336H15.928L15.0424 27.5832H15.0409L12.4633 29.1841H12.4618L11.9212 29.5202C13.2115 29.9099 14.581 30.119 15.9982 30.119C23.7954 30.119 30.1171 23.7973 30.1171 16.0002C30.1171 9.86667 26.2058 4.64714 20.7398 2.69972Z" fill="#0246D0"/>
<path d="M15.9985 2.35156C8.46117 2.35156 2.35156 8.46117 2.35156 15.9985C2.35156 21.675 5.8178 26.5436 10.7491 28.6L11.8886 26.8736L12.2216 26.3688C7.98925 24.8261 4.96655 20.7655 4.96655 15.9985C4.96655 10.1607 9.50059 5.38172 15.2398 4.99343L15.9343 4.37814L18.046 2.50389C17.3784 2.40383 16.6944 2.35156 15.9985 2.35156ZM20.6162 3.15353L20.0845 5.11589L19.9307 5.68788C24.0824 7.2724 27.0319 11.2912 27.0319 15.9985C27.0319 16.8901 26.9259 17.7577 26.7258 18.5881L27.1439 19.3079L27.4695 19.8695L26.8079 20.2801L25.9178 20.8327C24.1272 24.5036 20.3578 27.0319 15.9985 27.0319H15.9283L15.0427 27.5815H15.0412L12.4636 29.1825C13.5911 29.4856 14.7754 29.6469 15.9985 29.6469C23.5358 29.6469 29.6469 23.5358 29.6469 15.9985C29.6469 10.0815 25.882 5.0457 20.6162 3.15353Z" fill="#0246D0"/>
<path d="M15.2411 4.9942L15.9356 4.37891C9.54668 4.41176 4.37793 9.60142 4.37793 15.9993C4.37793 20.9724 7.49919 25.2152 11.8899 26.8744L12.2229 26.3696C7.99053 24.8269 4.96783 20.7663 4.96783 15.9993C4.96783 10.1615 9.50188 5.38249 15.2411 4.9942ZM20.0858 5.11666L19.932 5.68864C24.0837 7.27317 27.0332 11.292 27.0332 15.9993C27.0332 16.8908 26.9272 17.7585 26.7271 18.5889L27.1452 19.3087C27.4558 18.2603 27.6231 17.1492 27.6231 15.9993C27.6231 11.0187 24.4899 6.76988 20.0858 5.11666ZM15.9998 27.0327H15.9296L15.044 27.5823C15.3591 27.6092 15.6772 27.6226 15.9998 27.6226C20.9072 27.6226 25.1037 24.582 26.8092 20.2809L25.9191 20.8335C24.1285 24.5043 20.3591 27.0327 15.9998 27.0327Z" fill="#0246D0"/>
<path d="M22.3168 11.8857L7.98828 12.03L15.8924 18.8877L26.8644 19.7177L22.3168 11.8857Z" fill="#0246D0"/>
<path d="M20.8371 0.625488L7.98828 12.0306L15.8924 18.8883L20.8371 0.625488Z" fill="#0246D0"/>
<path d="M10.4062 29.9319L22.3166 11.8857L26.8643 19.7177L10.4062 29.9319Z" fill="#0246D0"/>
</svg>
