<svg width="256" height="256" viewBox="0 0 256 256" fill="none" xmlns="http://www.w3.org/2000/svg">
<path d="M148.877 12.9151C142.103 11.6845 135.126 11.0513 127.993 11.0513C120.861 11.0513 113.884 11.6845 107.109 12.9151C108.017 12.2819 108.77 11.2544 109.344 9.59374C109.69 8.57821 110.252 6.76221 110.777 4.98206C111.661 1.99522 114.051 0 116.739 0H139.26C141.936 0 144.337 1.99522 145.221 4.98206C145.747 6.76221 146.297 8.57821 146.643 9.59374C147.217 11.2544 147.969 12.2819 148.877 12.9151Z" fill="#0246D0"/>
<path d="M52.3412 38.8212C52.831 37.8057 52.9744 36.5273 52.6399 34.795C52.4368 33.7317 52.0067 31.8798 51.5646 30.0758C50.8478 27.0531 51.9111 24.126 54.2408 22.7759L73.7509 11.5215C76.0687 10.1834 79.1391 10.7091 81.3972 12.8596C82.7472 14.138 84.1331 15.4283 84.9456 16.1332C86.2598 17.2563 87.4067 17.7819 88.4939 17.9014C75.1487 22.6804 62.9385 29.8249 52.3412 38.8212Z" fill="#0246D0"/>
<path d="M38.8068 52.3509C29.8105 62.9366 22.6779 75.1352 17.899 88.4569C17.7795 87.3816 17.2538 86.2466 16.1308 84.9562C15.4259 84.1319 14.1236 82.7459 12.8452 81.3958C10.7067 79.1377 10.169 76.0791 11.5191 73.7493L22.7735 54.2387C24.1235 51.9208 27.0506 50.8455 30.0733 51.5743C31.8774 52.0044 33.7292 52.4345 34.7925 52.6377C36.5249 52.9722 37.7913 52.8408 38.8068 52.3509Z" fill="#0246D0"/>
<path d="M11.0394 127.996C11.0394 135.117 11.6726 142.095 12.9031 148.869C12.2699 147.961 11.2425 147.22 9.59373 146.659C8.5782 146.3 6.7622 145.751 4.98205 145.225C1.99521 144.341 0 141.951 0 139.263V116.742C0 114.053 1.99521 111.664 4.98205 110.78C6.7622 110.254 8.5782 109.693 9.59373 109.346C11.2425 108.773 12.2699 108.032 12.9031 107.136C11.6726 113.91 11.0394 120.876 11.0394 127.996Z" fill="#0246D0"/>
<path d="M38.783 203.626C37.7794 203.16 36.501 203.028 34.7925 203.363C33.7292 203.566 31.8774 203.996 30.0733 204.426C27.0387 205.155 24.1235 204.08 22.7735 201.75L11.5191 182.251C10.169 179.922 10.7067 176.851 12.8452 174.593C14.1356 173.255 15.4259 171.857 16.1308 171.044C17.2538 169.754 17.7795 168.619 17.899 167.532C22.6779 180.853 29.8105 193.052 38.783 203.626Z" fill="#0246D0"/>
<path d="M81.6497 235.402L80.2637 237.493L75.5802 245.127C74.935 245.032 74.3257 244.816 73.7522 244.482L54.2416 233.215C51.9237 231.877 50.8484 228.95 51.5772 225.927C52.0074 224.111 52.4375 222.271 52.6406 221.208C52.9751 219.475 52.8318 218.197 52.3658 217.193C61.1115 224.625 70.9684 230.79 81.6497 235.402Z" fill="#0246D0"/>
<path d="M148.865 243.084C147.957 243.718 147.216 244.757 146.655 246.394C146.296 247.421 145.747 249.237 145.221 251.018C144.337 254.004 141.947 256 139.259 256H116.738C114.05 256 111.661 254.004 110.777 251.018C110.251 249.237 109.69 247.421 109.343 246.394C108.77 244.757 108.029 243.73 107.133 243.084C113.907 244.315 120.872 244.948 127.993 244.948C135.114 244.948 142.091 244.315 148.865 243.084Z" fill="#0246D0"/>
<path d="M201.741 233.215L182.243 244.481C179.913 245.819 176.843 245.294 174.585 243.143C173.235 241.865 171.849 240.574 171.036 239.858C169.734 238.723 168.575 238.209 167.5 238.101C180.833 233.322 193.043 226.178 203.629 217.193C203.151 218.197 203.008 219.475 203.342 221.208C203.545 222.271 203.975 224.111 204.417 225.927C205.146 228.95 204.071 231.877 201.741 233.215Z" fill="#0246D0"/>
<path d="M244.474 182.252L233.208 201.751C231.87 204.08 228.943 205.156 225.92 204.427C224.104 203.985 222.252 203.567 221.201 203.352C219.468 203.017 218.19 203.16 217.187 203.638C226.171 193.053 233.315 180.842 238.094 167.508C238.202 168.584 238.716 169.743 239.851 171.045C240.556 171.857 241.858 173.243 243.136 174.593C245.275 176.851 245.812 179.922 244.474 182.252Z" fill="#0246D0"/>
<path d="M255.999 116.742V139.263C255.999 141.951 254.004 144.341 251.017 145.225C249.237 145.751 247.421 146.3 246.393 146.659C244.757 147.22 243.717 147.961 243.084 148.869C244.315 142.095 244.948 135.117 244.948 127.996C244.948 120.876 244.315 113.91 243.084 107.136C243.729 108.032 244.757 108.773 246.393 109.346C247.421 109.705 249.237 110.254 251.017 110.78C254.004 111.664 255.999 114.053 255.999 116.742Z" fill="#0246D0"/>
<path d="M243.14 81.3958C241.862 82.7459 240.56 84.1319 239.855 84.9443C238.72 86.2466 238.206 87.4056 238.099 88.4928C233.32 75.1591 226.175 62.9366 217.179 52.3509C218.194 52.8408 219.461 52.9722 221.205 52.6377C222.268 52.4345 224.108 52.0044 225.924 51.5743C228.947 50.8455 231.874 51.9208 233.212 54.2387L244.478 73.7493C245.816 76.0671 245.279 79.1377 243.14 81.3958Z" fill="#0246D0"/>
<path d="M203.346 34.793C203.012 36.5254 203.155 37.8038 203.633 38.8073C193.048 29.8229 180.825 22.6784 167.492 17.8995C168.579 17.7919 169.738 17.2663 171.041 16.1313C171.853 15.4264 173.239 14.136 174.589 12.8457C176.847 10.7072 179.917 10.1695 182.247 11.5196L201.745 22.774C204.075 24.124 205.15 27.0511 204.421 30.0738C203.979 31.8779 203.561 33.7297 203.346 34.793Z" fill="#0246D0"/>
<path d="M127.985 15.063C65.6081 15.063 15.0469 65.6258 15.0469 128.005C15.0469 174.732 43.4218 214.841 83.8756 232.022L85.9903 228.82L95.1061 215.008L97.7704 210.97C63.9115 198.628 39.7301 166.142 39.7301 128.005C39.7301 81.3012 76.0023 43.0684 121.916 39.962L127.471 35.0396L144.365 20.0452L147.973 16.8312C141.486 15.6723 134.807 15.063 127.985 15.063ZM165.918 21.5984L164.926 25.2424L160.673 40.9418L159.443 45.5177C192.656 58.1943 216.252 90.3456 216.252 128.005C216.252 135.138 215.404 142.079 213.803 148.722L217.148 154.481L219.753 158.973L214.46 162.259L207.34 166.68C193.015 196.047 162.86 216.275 127.985 216.275H127.424L120.339 220.671H120.327L99.7058 233.479H99.6939L95.3689 236.168C105.691 239.286 116.647 240.959 127.985 240.959C190.362 240.959 240.936 190.384 240.936 128.005C240.936 78.9355 209.645 37.1782 165.918 21.5984Z" fill="#0246D0"/>
<path d="M127.987 18.813C67.6891 18.813 18.8125 67.6911 18.8125 127.991C18.8125 173.405 46.5423 212.354 85.9925 228.806L95.1083 214.995L97.7726 210.956C63.9138 198.614 39.7323 166.128 39.7323 127.991C39.7323 81.2876 76.0045 43.0549 121.918 39.9485L127.474 35.0261L144.367 20.0317C139.027 19.2312 133.555 18.813 127.987 18.813ZM164.929 25.2289L160.675 40.9282L159.445 45.5042C192.659 58.1807 216.255 90.3321 216.255 127.991C216.255 135.124 215.406 142.066 213.805 148.709L217.151 154.467L219.755 158.96L214.462 162.245L207.342 166.666C193.017 196.034 162.862 216.261 127.987 216.261H127.426L120.341 220.658H120.329L99.7081 233.466C108.728 235.891 118.203 237.182 127.987 237.182C188.286 237.182 237.174 188.291 237.174 127.991C237.174 80.6544 207.055 40.3667 164.929 25.2289Z" fill="#0246D0"/>
<path d="M121.929 39.9547L127.484 35.0322C76.3732 35.2951 35.0234 76.8134 35.0234 127.998C35.0234 167.783 59.9934 201.727 95.1187 215.001L97.7829 210.963C63.9241 198.621 39.7426 166.135 39.7426 127.998C39.7426 81.2938 76.0148 43.0611 121.929 39.9547ZM160.686 40.9344L159.455 45.5104C192.669 58.1869 216.265 90.3383 216.265 127.998C216.265 135.13 215.417 142.072 213.816 148.715L217.161 154.474C219.646 146.086 220.984 137.197 220.984 127.998C220.984 88.1518 195.919 54.1605 160.686 40.9344ZM127.998 216.267H127.436L120.351 220.664C122.872 220.879 125.417 220.987 127.998 220.987C167.257 220.987 200.829 196.661 214.473 162.252L207.352 166.672C193.027 196.04 162.872 216.267 127.998 216.267Z" fill="#0246D0"/>
<path d="M178.534 95.0884L63.9062 96.2425L127.139 151.105L214.915 157.746L178.534 95.0884Z" fill="#0246D0"/>
<path d="M166.697 5.00391L63.9062 96.2475L127.139 151.11L166.697 5.00391Z" fill="#0246D0"/>
<path d="M83.249 239.461L178.532 95.0884L214.912 157.746L83.249 239.461Z" fill="#0246D0"/>
</svg>
