<svg width="159" height="45" viewBox="0 0 159 45" fill="none" xmlns="http://www.w3.org/2000/svg">
<path d="M26.1703 2.27028C24.9795 2.05396 23.753 1.94265 22.4992 1.94265C21.2454 1.94265 20.0189 2.05396 18.8281 2.27028C18.9877 2.15897 19.12 1.97836 19.2209 1.68643C19.2818 1.50792 19.3805 1.18869 19.4729 0.87577C19.6283 0.350729 20.0483 0 20.5209 0H24.4797C24.9501 0 25.3722 0.350729 25.5277 0.87577C25.6201 1.18869 25.7167 1.50792 25.7776 1.68643C25.8784 1.97836 26.0107 2.15897 26.1703 2.27028Z" fill="white"/>
<path d="M9.20073 6.82403C9.28683 6.64552 9.31204 6.4208 9.25323 6.11628C9.21753 5.92936 9.14192 5.60384 9.06422 5.28671C8.93821 4.75537 9.12512 4.24083 9.53466 4.00351L12.9642 2.02515C13.3717 1.78994 13.9114 1.88234 14.3083 2.26037C14.5457 2.48509 14.7893 2.71191 14.9321 2.83582C15.1631 3.03323 15.3647 3.12564 15.5558 3.14664C13.2099 3.98671 11.0636 5.24261 9.20073 6.82403Z" fill="white"/>
<path d="M6.8215 9.20255C5.24007 11.0633 3.98627 13.2076 3.14621 15.5492C3.12521 15.3602 3.0328 15.1607 2.83538 14.9339C2.71147 14.789 2.48256 14.5454 2.25784 14.308C1.88191 13.9111 1.7874 13.3735 2.02472 12.9639L4.00307 9.53438C4.24039 9.12694 4.75493 8.93793 5.28628 9.06604C5.6034 9.14164 5.92893 9.21725 6.11584 9.25295C6.42036 9.31176 6.64298 9.28866 6.8215 9.20255Z" fill="white"/>
<path d="M1.94055 22.4989C1.94055 23.7506 2.05186 24.9771 2.26818 26.1679C2.15687 26.0083 1.97626 25.8781 1.68643 25.7794C1.50792 25.7164 1.18869 25.6198 0.875769 25.5274C0.350727 25.3719 0 24.9519 0 24.4794V20.5206C0 20.048 0.350727 19.628 0.875769 19.4726C1.18869 19.3802 1.50792 19.2815 1.68643 19.2206C1.97626 19.1198 2.15687 18.9895 2.26818 18.832C2.05186 20.0228 1.94055 21.2472 1.94055 22.4989Z" fill="white"/>
<path d="M6.8173 35.7933C6.64088 35.7114 6.41616 35.6883 6.11584 35.7471C5.92893 35.7828 5.6034 35.8584 5.28628 35.934C4.75283 36.0622 4.24039 35.8731 4.00307 35.4636L2.02472 32.0361C1.7874 31.6266 1.88191 31.0869 2.25784 30.6899C2.48466 30.4547 2.71147 30.209 2.83538 30.0662C3.0328 29.8394 3.12521 29.6398 3.14621 29.4487C3.98627 31.7904 5.24007 33.9347 6.8173 35.7933Z" fill="white"/>
<path d="M14.3522 41.3789L14.1085 41.7464L13.2853 43.0884C13.1719 43.0716 13.0648 43.0338 12.9639 42.975L9.53438 40.9945C9.12694 40.7593 8.93793 40.2448 9.06604 39.7134C9.14164 39.3942 9.21725 39.0708 9.25295 38.8839C9.31176 38.5794 9.28655 38.3546 9.20465 38.1782C10.742 39.4845 12.4746 40.5682 14.3522 41.3789Z" fill="white"/>
<path d="M26.1679 42.7295C26.0083 42.8408 25.8781 43.0235 25.7794 43.3112C25.7164 43.4919 25.6198 43.8111 25.5274 44.124C25.3719 44.649 24.9519 44.9998 24.4794 44.9998H20.5206C20.048 44.9998 19.628 44.649 19.4726 44.124C19.3802 43.8111 19.2815 43.4919 19.2206 43.3112C19.1198 43.0235 18.9895 42.8429 18.832 42.7295C20.0228 42.9458 21.2472 43.0571 22.4989 43.0571C23.7506 43.0571 24.9771 42.9458 26.1679 42.7295Z" fill="white"/>
<path d="M35.4634 40.9945L32.0359 42.975C31.6264 43.2102 31.0867 43.1178 30.6897 42.7398C30.4524 42.5151 30.2088 42.2882 30.066 42.1622C29.8371 41.9627 29.6334 41.8724 29.4443 41.8535C31.7881 41.0134 33.9345 39.7575 35.7952 38.1782C35.7112 38.3546 35.686 38.5794 35.7448 38.8839C35.7805 39.0708 35.8561 39.3942 35.9338 39.7134C36.062 40.2448 35.8729 40.7593 35.4634 40.9945Z" fill="white"/>
<path d="M42.976 32.0359L40.9955 35.4634C40.7603 35.8729 40.2458 36.062 39.7144 35.9338C39.3952 35.8561 39.0697 35.7826 38.8849 35.7448C38.5803 35.686 38.3556 35.7112 38.1792 35.7952C39.7585 33.9345 41.0144 31.7881 41.8545 29.4443C41.8734 29.6334 41.9637 29.8371 42.1632 30.066C42.2871 30.2088 42.516 30.4524 42.7408 30.6897C43.1167 31.0867 43.2112 31.6264 42.976 32.0359Z" fill="white"/>
<path d="M45.0007 20.5206V24.4794C45.0007 24.9519 44.65 25.3719 44.125 25.5274C43.8121 25.6198 43.4928 25.7164 43.3122 25.7794C43.0245 25.8781 42.8418 26.0083 42.7305 26.1679C42.9468 24.9771 43.0581 23.7506 43.0581 22.4989C43.0581 21.2472 42.9468 20.0228 42.7305 18.832C42.8439 18.9895 43.0245 19.1198 43.3122 19.2206C43.4928 19.2836 43.8121 19.3802 44.125 19.4726C44.65 19.628 45.0007 20.048 45.0007 20.5206Z" fill="white"/>
<path d="M42.7404 14.3081C42.5157 14.5454 42.2868 14.789 42.1629 14.9318C41.9634 15.1607 41.873 15.3644 41.8541 15.5555C41.0141 13.2118 39.7582 11.0633 38.1768 9.20255C38.3553 9.28866 38.5779 9.31176 38.8845 9.25295C39.0714 9.21725 39.3948 9.14164 39.7141 9.06604C40.2454 8.93793 40.76 9.12694 40.9952 9.53438L42.9756 12.9639C43.2108 13.3714 43.1163 13.9111 42.7404 14.3081Z" fill="white"/>
<path d="M35.7445 6.11633C35.6857 6.42086 35.7109 6.64557 35.7949 6.82199C33.9341 5.24266 31.7857 3.98676 29.4419 3.1467C29.633 3.1278 29.8367 3.03539 30.0656 2.83587C30.2085 2.71196 30.4521 2.48514 30.6894 2.25833C31.0863 1.8824 31.6261 1.78789 32.0356 2.02521L35.4631 4.00357C35.8726 4.24088 36.0616 4.75542 35.9335 5.28677C35.8558 5.60389 35.7823 5.92942 35.7445 6.11633Z" fill="white"/>
<path d="M22.4989 2.64746C11.5339 2.64746 2.646 11.5354 2.646 22.5003C2.646 30.7141 7.63389 37.7643 14.745 40.7844L15.1168 40.2215L16.7192 37.7937L17.1875 37.0839C11.2357 34.9144 6.98493 29.204 6.98493 22.5003C6.98493 14.2908 13.361 7.57025 21.432 7.0242L22.4085 6.15894L25.3782 3.52323L26.0124 2.95828C24.872 2.75457 23.698 2.64746 22.4989 2.64746ZM29.1669 3.79625L28.9926 4.4368L28.2449 7.19642L28.0286 8.00078C33.867 10.2291 38.0149 15.8806 38.0149 22.5003C38.0149 23.7541 37.8658 24.9743 37.5843 26.142L38.1724 27.1543L38.6302 27.9439L37.6998 28.5215L36.4482 29.2986C33.9301 34.4608 28.6292 38.0163 22.4989 38.0163H22.4001L21.1547 38.7892H21.1526L17.5278 41.0406H17.5257L16.7654 41.5131C18.5799 42.0613 20.5058 42.3553 22.4989 42.3553C33.4638 42.3553 42.3538 33.4653 42.3538 22.5003C42.3538 13.8749 36.8535 6.53487 29.1669 3.79625Z" fill="white"/>
<path d="M22.4989 3.30713C11.8994 3.30713 3.30762 11.8989 3.30762 22.4984C3.30762 30.4812 8.1821 37.3277 15.1168 40.2196L16.7193 37.7918L17.1876 37.082C11.2357 34.9125 6.98501 29.2022 6.98501 22.4984C6.98501 14.2889 13.3611 7.56837 21.432 7.02232L22.4086 6.15705L25.3783 3.52135C24.4395 3.38064 23.4776 3.30713 22.4989 3.30713ZM28.9926 4.43492L28.245 7.19454L28.0287 7.9989C33.8671 10.2272 38.0149 15.8787 38.0149 22.4984C38.0149 23.7522 37.8658 24.9724 37.5844 26.1401L38.1725 27.1524L38.6303 27.9421L37.6999 28.5196L36.4482 29.2967C33.9301 34.4589 28.6293 38.0145 22.4989 38.0145H22.4002L21.1548 38.7873H21.1527L17.5278 41.0387C19.1135 41.465 20.7789 41.6918 22.4989 41.6918C33.0985 41.6918 41.6923 33.098 41.6923 22.4984C41.6923 14.1776 36.3978 7.09583 28.9926 4.43492Z" fill="white"/>
<path d="M21.4324 7.02347L22.4089 6.1582C13.4244 6.20441 6.15576 13.5025 6.15576 22.4996C6.15576 29.4931 10.5451 35.4597 16.7196 37.793L17.1879 37.0831C11.2361 34.9137 6.98533 29.2033 6.98533 22.4996C6.98533 14.29 13.3614 7.56952 21.4324 7.02347ZM28.2453 7.19569L28.029 8.00005C33.8674 10.2283 38.0153 15.8799 38.0153 22.4996C38.0153 23.7534 37.8662 24.9736 37.5847 26.1413L38.1728 27.1536C38.6096 25.6792 38.8448 24.1167 38.8448 22.4996C38.8448 15.4955 34.4387 9.52057 28.2453 7.19569ZM22.4992 38.0156H22.4005L21.1551 38.7885C21.5983 38.8263 22.0456 38.8452 22.4992 38.8452C29.4004 38.8452 35.3019 34.5692 37.7002 28.5208L36.4485 29.2978C33.9304 34.46 28.6296 38.0156 22.4992 38.0156Z" fill="white"/>
<path d="M31.3837 16.7148L11.2339 16.9177L22.3492 26.5615L37.7789 27.7287L31.3837 16.7148Z" fill="white"/>
<path d="M29.3029 0.879883L11.2339 16.9186L22.3492 26.5624L29.3029 0.879883Z" fill="white"/>
<path d="M14.6343 42.0926L31.3835 16.7148L37.7787 27.7287L14.6343 42.0926Z" fill="white"/>
<path d="M55.946 10.5H79.781V15.54L63.961 29.505V30.135H79.781V35H57.101H57.066H55.946V29.995L71.871 15.89V15.365H55.946V10.5ZM97.1388 18.27H97.3838V15.365H102.704V35H97.3838V32.27H97.2088C95.8788 33.985 93.6388 35 89.9288 35C81.7038 35 80.7938 27.825 80.7938 25.2C80.7938 22.33 81.6688 15.365 89.9638 15.365C93.6038 15.365 95.8088 16.52 97.1388 18.27ZM91.5038 30.45C96.0888 30.45 97.0338 28.175 97.0338 25.2C97.0338 22.54 96.0888 19.95 91.5038 19.95C86.3938 19.95 85.8688 23.66 85.8688 25.2C85.8688 26.6 86.4288 30.45 91.5038 30.45ZM109.937 35H104.652V15.505H109.937V35ZM109.937 14.105H104.652V9.345H109.937V14.105ZM117.286 35H112.001V9.835H117.286V35ZM135.147 18.27H135.392V15.365H140.712V35H135.392V32.27H135.217C133.887 33.985 131.647 35 127.937 35C119.712 35 118.802 27.825 118.802 25.2C118.802 22.33 119.677 15.365 127.972 15.365C131.612 15.365 133.817 16.52 135.147 18.27ZM129.512 30.45C134.097 30.45 135.042 28.175 135.042 25.2C135.042 22.54 134.097 19.95 129.512 19.95C124.402 19.95 123.877 23.66 123.877 25.2C123.877 26.6 124.437 30.45 129.512 30.45ZM154 15.365C155.4 15.365 156.555 15.68 157.465 15.89L156.625 20.895C156.135 20.755 154.77 20.475 153.09 20.475C149.135 20.475 147.98 23.555 147.98 26.215V35H142.66V15.365H147.98V18.27H148.295C149.415 16.38 150.605 15.365 154 15.365Z" fill="white"/>
</svg>
