<svg width="159" height="45" viewBox="0 0 159 45" fill="none" xmlns="http://www.w3.org/2000/svg">
<path d="M26.1703 2.27028C24.9795 2.05396 23.753 1.94265 22.4992 1.94265C21.2454 1.94265 20.0189 2.05396 18.8281 2.27028C18.9877 2.15897 19.12 1.97836 19.2209 1.68643C19.2818 1.50792 19.3805 1.18869 19.4729 0.87577C19.6283 0.350729 20.0483 0 20.5209 0H24.4797C24.9501 0 25.3722 0.350729 25.5277 0.87577C25.6201 1.18869 25.7167 1.50792 25.7776 1.68643C25.8784 1.97836 26.0107 2.15897 26.1703 2.27028Z" fill="#0246D0"/>
<path d="M9.20073 6.82428C9.28683 6.64576 9.31204 6.42105 9.25323 6.11652C9.21753 5.92961 9.14192 5.60408 9.06422 5.28696C8.93821 4.75561 9.12512 4.24107 9.53466 4.00375L12.9642 2.0254C13.3717 1.79018 13.9114 1.88259 14.3083 2.26062C14.5457 2.48533 14.7893 2.71215 14.9321 2.83606C15.1631 3.03348 15.3647 3.12589 15.5558 3.14689C13.2099 3.98695 11.0636 5.24285 9.20073 6.82428Z" fill="#0246D0"/>
<path d="M6.8215 9.20279C5.24007 11.0635 3.98627 13.2078 3.14621 15.5495C3.12521 15.3605 3.0328 15.161 2.83538 14.9341C2.71147 14.7892 2.48256 14.5456 2.25784 14.3083C1.88191 13.9114 1.7874 13.3737 2.02472 12.9642L4.00307 9.53462C4.24039 9.12719 4.75493 8.93817 5.28628 9.06628C5.6034 9.14189 5.92893 9.21749 6.11584 9.25319C6.42036 9.312 6.64298 9.2889 6.8215 9.20279Z" fill="#0246D0"/>
<path d="M1.94055 22.4992C1.94055 23.7509 2.05186 24.9774 2.26818 26.1682C2.15687 26.0085 1.97626 25.8783 1.68643 25.7796C1.50792 25.7166 1.18869 25.62 0.875769 25.5276C0.350727 25.3722 0 24.9522 0 24.4796V20.5208C0 20.0483 0.350727 19.6282 0.875769 19.4728C1.18869 19.3804 1.50792 19.2817 1.68643 19.2208C1.97626 19.12 2.15687 18.9898 2.26818 18.8323C2.05186 20.0231 1.94055 21.2475 1.94055 22.4992Z" fill="#0246D0"/>
<path d="M6.8173 35.7936C6.64088 35.7117 6.41616 35.6886 6.11584 35.7474C5.92893 35.7831 5.6034 35.8587 5.28628 35.9343C4.75283 36.0624 4.24039 35.8734 4.00307 35.4639L2.02472 32.0364C1.7874 31.6268 1.88191 31.0871 2.25784 30.6902C2.48466 30.455 2.71147 30.2092 2.83538 30.0664C3.0328 29.8396 3.12521 29.6401 3.14621 29.449C3.98627 31.7907 5.24007 33.9349 6.8173 35.7936Z" fill="#0246D0"/>
<path d="M14.3522 41.3791L14.1085 41.7466L13.2853 43.0887C13.1719 43.0719 13.0648 43.034 12.9639 42.9752L9.53438 40.9948C9.12694 40.7596 8.93793 40.245 9.06604 39.7137C9.14164 39.3945 9.21725 39.071 9.25295 38.8841C9.31176 38.5796 9.28655 38.3549 9.20465 38.1785C10.742 39.4848 12.4746 40.5685 14.3522 41.3791Z" fill="#0246D0"/>
<path d="M26.1679 42.7297C26.0083 42.841 25.8781 43.0238 25.7794 43.3115C25.7164 43.4921 25.6198 43.8113 25.5274 44.1242C25.3719 44.6493 24.9519 45 24.4794 45H20.5206C20.048 45 19.628 44.6493 19.4726 44.1242C19.3802 43.8113 19.2815 43.4921 19.2206 43.3115C19.1198 43.0238 18.9895 42.8431 18.832 42.7297C20.0228 42.9461 21.2472 43.0574 22.4989 43.0574C23.7506 43.0574 24.9771 42.9461 26.1679 42.7297Z" fill="#0246D0"/>
<path d="M35.4634 40.9948L32.0359 42.9752C31.6264 43.2105 31.0867 43.1181 30.6897 42.74C30.4524 42.5153 30.2088 42.2885 30.066 42.1625C29.8371 41.963 29.6334 41.8727 29.4443 41.8538C31.7881 41.0137 33.9345 39.7578 35.7952 38.1785C35.7112 38.3549 35.686 38.5796 35.7448 38.8841C35.7805 39.071 35.8561 39.3945 35.9338 39.7137C36.062 40.245 35.8729 40.7596 35.4634 40.9948Z" fill="#0246D0"/>
<path d="M42.976 32.0359L40.9955 35.4634C40.7603 35.8729 40.2458 36.062 39.7144 35.9338C39.3952 35.8561 39.0697 35.7826 38.8849 35.7448C38.5803 35.686 38.3556 35.7112 38.1792 35.7952C39.7585 33.9345 41.0144 31.7881 41.8545 29.4443C41.8734 29.6334 41.9637 29.8371 42.1632 30.066C42.2871 30.2088 42.516 30.4524 42.7408 30.6897C43.1167 31.0867 43.2112 31.6264 42.976 32.0359Z" fill="#0246D0"/>
<path d="M45.0007 20.5208V24.4796C45.0007 24.9522 44.65 25.3722 44.125 25.5276C43.8121 25.62 43.4928 25.7166 43.3122 25.7796C43.0245 25.8783 42.8418 26.0085 42.7305 26.1682C42.9468 24.9774 43.0581 23.7509 43.0581 22.4992C43.0581 21.2475 42.9468 20.0231 42.7305 18.8323C42.8439 18.9898 43.0245 19.12 43.3122 19.2208C43.4928 19.2838 43.8121 19.3804 44.125 19.4728C44.65 19.6282 45.0007 20.0483 45.0007 20.5208Z" fill="#0246D0"/>
<path d="M42.7404 14.3083C42.5157 14.5456 42.2868 14.7892 42.1629 14.932C41.9634 15.161 41.873 15.3647 41.8541 15.5558C41.0141 13.212 39.7582 11.0635 38.1768 9.20279C38.3553 9.2889 38.5779 9.312 38.8845 9.25319C39.0714 9.21749 39.3948 9.14189 39.7141 9.06628C40.2454 8.93817 40.76 9.12719 40.9952 9.53462L42.9756 12.9642C43.2108 13.3716 43.1163 13.9114 42.7404 14.3083Z" fill="#0246D0"/>
<path d="M35.7445 6.11658C35.6857 6.4211 35.7109 6.64582 35.7949 6.82223C33.9341 5.24291 31.7857 3.98701 29.4419 3.14694C29.633 3.12804 29.8367 3.03563 30.0656 2.83612C30.2085 2.71221 30.4521 2.48539 30.6894 2.25857C31.0863 1.88264 31.6261 1.78813 32.0356 2.02545L35.4631 4.00381C35.8726 4.24113 36.0616 4.75567 35.9335 5.28701C35.8558 5.60414 35.7823 5.92966 35.7445 6.11658Z" fill="#0246D0"/>
<path d="M22.4989 2.64771C11.5339 2.64771 2.646 11.5356 2.646 22.5006C2.646 30.7143 7.63389 37.7646 14.745 40.7846L15.1168 40.2218L16.7192 37.794L17.1875 37.0841C11.2357 34.9146 6.98493 29.2043 6.98493 22.5006C6.98493 14.291 13.361 7.57049 21.432 7.02445L22.4085 6.15918L25.3782 3.52347L26.0124 2.95853C24.872 2.75481 23.698 2.64771 22.4989 2.64771ZM29.1669 3.79649L28.9926 4.43704L28.2449 7.19666L28.0286 8.00102C33.867 10.2293 38.0149 15.8808 38.0149 22.5006C38.0149 23.7544 37.8658 24.9746 37.5843 26.1423L38.1724 27.1545L38.6302 27.9442L37.6998 28.5217L36.4481 29.2988C33.9301 34.461 28.6292 38.0166 22.4989 38.0166H22.4001L21.1547 38.7894H21.1526L17.5278 41.0408H17.5257L16.7654 41.5134C18.5799 42.0615 20.5058 42.3555 22.4989 42.3555C33.4638 42.3555 42.3538 33.4655 42.3538 22.5006C42.3538 13.8752 36.8535 6.53511 29.1669 3.79649Z" fill="#0246D0"/>
<path d="M22.4989 3.30737C11.8994 3.30737 3.30762 11.8992 3.30762 22.4987C3.30762 30.4814 8.1821 37.328 15.1168 40.2199L16.7193 37.7921L17.1876 37.0822C11.2357 34.9128 6.98501 29.2024 6.98501 22.4987C6.98501 14.2891 13.3611 7.56861 21.432 7.02257L22.4086 6.1573L25.3783 3.52159C24.4395 3.38088 23.4776 3.30737 22.4989 3.30737ZM28.9926 4.43516L28.245 7.19478L28.0287 7.99914C33.8671 10.2274 38.0149 15.879 38.0149 22.4987C38.0149 23.7525 37.8658 24.9727 37.5844 26.1404L38.1725 27.1527L38.6303 27.9423L37.6999 28.5199L36.4482 29.2969C33.9301 34.4591 28.6293 38.0147 22.4989 38.0147H22.4002L21.1548 38.7876H21.1527L17.5278 41.0389C19.1135 41.4653 20.7789 41.6921 22.4989 41.6921C33.0985 41.6921 41.6923 33.0982 41.6923 22.4987C41.6923 14.1778 36.3978 7.09607 28.9926 4.43516Z" fill="#0246D0"/>
<path d="M21.4324 7.02372L22.4089 6.15845C13.4244 6.20465 6.15576 13.5027 6.15576 22.4998C6.15576 29.4934 10.5451 35.46 16.7196 37.7932L17.1879 37.0834C11.2361 34.9139 6.98533 29.2036 6.98533 22.4998C6.98533 14.2903 13.3614 7.56976 21.4324 7.02372ZM28.2453 7.19593L28.029 8.00029C33.8674 10.2286 38.0153 15.8801 38.0153 22.4998C38.0153 23.7536 37.8662 24.9738 37.5847 26.1415L38.1728 27.1538C38.6096 25.6795 38.8448 24.117 38.8448 22.4998C38.8448 15.4958 34.4387 9.52081 28.2453 7.19593ZM22.4992 38.0159H22.4005L21.1551 38.7887C21.5983 38.8265 22.0456 38.8454 22.4992 38.8454C29.4004 38.8454 35.3019 34.5695 37.7002 28.521L36.4485 29.2981C33.9304 34.4603 28.6296 38.0159 22.4992 38.0159Z" fill="#0246D0"/>
<path d="M31.3837 16.7151L11.2339 16.918L22.3492 26.5617L37.7789 27.729L31.3837 16.7151Z" fill="white"/>
<path d="M29.3029 0.879883L11.2339 16.9186L22.3492 26.5624L29.3029 0.879883Z" fill="white"/>
<path d="M14.6343 42.0929L31.3835 16.7151L37.7787 27.729L14.6343 42.0929Z" fill="white"/>
<path d="M55.946 10.5H79.781V15.54L63.961 29.505V30.135H79.781V35H57.101H57.066H55.946V29.995L71.871 15.89V15.365H55.946V10.5ZM97.1388 18.27H97.3838V15.365H102.704V35H97.3838V32.27H97.2088C95.8788 33.985 93.6388 35 89.9288 35C81.7038 35 80.7938 27.825 80.7938 25.2C80.7938 22.33 81.6688 15.365 89.9638 15.365C93.6038 15.365 95.8088 16.52 97.1388 18.27ZM91.5038 30.45C96.0888 30.45 97.0338 28.175 97.0338 25.2C97.0338 22.54 96.0888 19.95 91.5038 19.95C86.3938 19.95 85.8688 23.66 85.8688 25.2C85.8688 26.6 86.4288 30.45 91.5038 30.45ZM109.937 35H104.652V15.505H109.937V35ZM109.937 14.105H104.652V9.345H109.937V14.105ZM117.286 35H112.001V9.835H117.286V35ZM135.147 18.27H135.392V15.365H140.712V35H135.392V32.27H135.217C133.887 33.985 131.647 35 127.937 35C119.712 35 118.802 27.825 118.802 25.2C118.802 22.33 119.677 15.365 127.972 15.365C131.612 15.365 133.817 16.52 135.147 18.27ZM129.512 30.45C134.097 30.45 135.042 28.175 135.042 25.2C135.042 22.54 134.097 19.95 129.512 19.95C124.402 19.95 123.877 23.66 123.877 25.2C123.877 26.6 124.437 30.45 129.512 30.45ZM154 15.365C155.4 15.365 156.555 15.68 157.465 15.89L156.625 20.895C156.135 20.755 154.77 20.475 153.09 20.475C149.135 20.475 147.98 23.555 147.98 26.215V35H142.66V15.365H147.98V18.27H148.295C149.415 16.38 150.605 15.365 154 15.365Z" fill="white"/>
</svg>
