<svg width="16" height="16" viewBox="0 0 16 16" fill="none" xmlns="http://www.w3.org/2000/svg">
<path d="M2.90678 15.2353C2.97622 15.2353 3.04603 15.2089 3.0992 15.1557L12.0478 6.20788V13.9213C12.0478 14.0312 12.114 14.1303 12.2156 14.1726C12.3172 14.2146 12.434 14.1915 12.5118 14.1137L15.1543 11.4705C15.2053 11.4195 15.2339 11.3504 15.2339 11.278V1.03969C15.2339 0.88959 15.112 0.7677 14.9619 0.7677L4.72318 0.7677C4.65121 0.7677 4.58176 0.796274 4.53076 0.847272L1.8879 3.48978C1.81013 3.56754 1.78699 3.68437 1.82894 3.786C1.8709 3.88764 1.97036 3.95383 2.08032 3.95383L9.79371 3.95383L0.845869 12.9028C0.739532 13.0091 0.739532 13.1813 0.845869 13.2872L2.71436 15.1557C2.76753 15.2089 2.83697 15.2353 2.90678 15.2353Z" fill="white"/>
</svg>
