<svg width="70" height="70" viewBox="0 0 70 70" fill="none" xmlns="http://www.w3.org/2000/svg">
<path d="M31.9202 58.5131L32.9702 30.2471" stroke="#000014" stroke-width="1.3" stroke-linecap="round" stroke-linejoin="round"/>
<path d="M36.8691 25.739L38.0731 58.478" stroke="#000014" stroke-width="1.3" stroke-linecap="round" stroke-linejoin="round"/>
<path d="M38.724 22.2322C39.76 23.1002 40.551 24.5002 40.103 25.2002C39.655 25.9002 38.171 26.0052 36.939 25.3892" stroke="#000014" stroke-width="1.3" stroke-linecap="round" stroke-linejoin="round"/>
<path d="M36.344 23.6672C36.4751 23.2661 36.6845 22.8949 36.96 22.5752" stroke="#000014" stroke-width="1.3" stroke-linecap="round" stroke-linejoin="round"/>
<path d="M37.002 22.9111V1.79907L38.213 1.98807C38.5682 2.05989 38.8899 2.24706 39.1279 2.52048C39.3658 2.7939 39.5068 3.13827 39.529 3.50007L41.3 13.2161C41.5114 14.923 41.222 16.6547 40.467 18.2001L38.696 22.2321" stroke="#000014" stroke-width="1.3" stroke-linecap="round" stroke-linejoin="round"/>
<path d="M39.76 23.1001L54.369 24.4021L53.095 25.9001C52.5131 26.6654 51.6889 27.2108 50.757 27.4471L41.811 28.9871C41.2345 29.1241 40.6288 29.0658 40.089 28.8213C39.5493 28.5767 39.1061 28.1599 38.829 27.6361L37.856 25.9001" stroke="#000014" stroke-width="1.3" stroke-linecap="round" stroke-linejoin="round"/>
<path d="M36.7151 25.3121L21.2031 44.6111L21.2591 42.9171C21.3356 41.8394 21.6902 40.7999 22.2881 39.9001L29.4771 28.6021C30.3985 27.0771 31.7076 25.8235 33.2711 24.9691L37.0161 23.1001" stroke="#000014" stroke-width="1.3" stroke-linecap="round" stroke-linejoin="round"/>
<path d="M36.9532 19.8241L28.8192 16.5691L24.1852 18.7671L24.1082 22.5891L31.0002 26.5" stroke="#000014" stroke-width="1.3" stroke-linecap="round" stroke-linejoin="round"/>
<path d="M26.46 19.9011L34.839 23.9681" stroke="#000014" stroke-width="1.3" stroke-linecap="round" stroke-linejoin="round"/>
<path d="M37.898 53.7112C37.898 54.6002 36.687 55.3002 35.182 55.3002C34.8852 55.2903 34.5899 55.2528 34.3 55.1882" stroke="#000014" stroke-width="1.3" stroke-linecap="round" stroke-linejoin="round"/>
<path d="M37.5271 33.292C37.9191 33.418 38.3181 33.565 38.7381 33.726" stroke="#000014" stroke-width="1.3" stroke-linecap="round" stroke-linejoin="round"/>
<path d="M41.083 34.6711C41.9317 34.9134 42.8115 35.0289 43.694 35.0141C44.2448 35.0165 44.795 34.9744 45.339 34.8881" stroke="#000014" stroke-width="1.3" stroke-linecap="round" stroke-linejoin="round"/>
<path d="M19.2151 38.031C19.6607 38.1029 20.0989 38.2154 20.5241 38.367" stroke="#000014" stroke-width="1.3" stroke-linecap="round" stroke-linejoin="round"/>
<path d="M25.158 39.9911C25.5302 40.0263 25.904 40.0427 26.278 40.0401C27.7611 40.0807 29.2288 39.7307 30.534 39.0251" stroke="#000014" stroke-width="1.3" stroke-linecap="round" stroke-linejoin="round"/>
<path d="M37.457 38.2131C39.466 38.7661 40.257 39.9071 43.176 40.0331" stroke="#000014" stroke-width="1.3" stroke-linecap="round" stroke-linejoin="round"/>
<path d="M45.843 39.8232C46.039 39.7812 46.228 39.7252 46.403 39.6692" stroke="#000014" stroke-width="1.3" stroke-linecap="round" stroke-linejoin="round"/>
<path d="M48.832 38.612C49.4516 38.3315 50.1061 38.1361 50.778 38.031" stroke="#000014" stroke-width="1.3" stroke-linecap="round" stroke-linejoin="round"/>
<path d="M7.24512 44.9471C7.78232 45.0308 8.32545 45.0706 8.86912 45.066C10.4673 45.0968 12.0442 44.6953 13.4331 43.9041" stroke="#000014" stroke-width="1.3" stroke-linecap="round" stroke-linejoin="round"/>
<path d="M16.7371 42.9662C17.0031 42.9662 17.2761 42.9662 17.5771 42.9662C18.0332 42.9643 18.489 42.9901 18.9421 43.0432" stroke="#000014" stroke-width="1.3" stroke-linecap="round" stroke-linejoin="round"/>
<path d="M21.5811 43.834C23.0062 44.6625 24.6297 45.0883 26.2781 45.066C27.2019 45.0857 28.123 44.9606 29.0081 44.695" stroke="#000014" stroke-width="1.3" stroke-linecap="round" stroke-linejoin="round"/>
<path d="M39.3682 44.0161C39.6062 44.1351 39.8372 44.2471 40.0682 44.3591" stroke="#000014" stroke-width="1.3" stroke-linecap="round" stroke-linejoin="round"/>
<path d="M42.4832 45.0102C42.8472 45.0102 43.2462 45.0662 43.6942 45.0662C46.4102 45.0662 47.4322 44.2402 48.8742 43.6172" stroke="#000014" stroke-width="1.3" stroke-linecap="round" stroke-linejoin="round"/>
<path d="M51.968 42.9452H52.402C53.6223 42.912 54.8347 43.1511 55.951 43.6452" stroke="#000014" stroke-width="1.3" stroke-linecap="round" stroke-linejoin="round"/>
<path d="M58.0161 44.562C58.2401 44.646 58.4781 44.723 58.7161 44.793" stroke="#000014" stroke-width="1.3" stroke-linecap="round" stroke-linejoin="round"/>
<path d="M61.3621 45.066C61.8309 45.0594 62.2988 45.0196 62.7621 44.947" stroke="#000014" stroke-width="1.3" stroke-linecap="round" stroke-linejoin="round"/>
<path d="M1.79907 48.0901C4.59907 48.5381 5.14507 50.0991 8.86907 50.0991H9.32407" stroke="#000014" stroke-width="1.3" stroke-linecap="round" stroke-linejoin="round"/>
<path d="M12.2361 49.4902C12.5791 49.3432 12.9011 49.1892 13.2161 49.0352" stroke="#000014" stroke-width="1.3" stroke-linecap="round" stroke-linejoin="round"/>
<path d="M15.7991 48.1111C16.3861 48.0089 16.9812 47.9597 17.5771 47.9641C18.526 47.9429 19.4719 48.0776 20.3771 48.3631" stroke="#000014" stroke-width="1.3" stroke-linecap="round" stroke-linejoin="round"/>
<path d="M22.6592 49.3782C23.7969 49.8828 25.0344 50.1221 26.2782 50.0782C26.931 50.0825 27.5826 50.0239 28.2242 49.9032" stroke="#000014" stroke-width="1.3" stroke-linecap="round" stroke-linejoin="round"/>
<path d="M37.6951 48.335C38.4819 48.6198 39.2489 48.9565 39.9911 49.343" stroke="#000014" stroke-width="1.3" stroke-linecap="round" stroke-linejoin="round"/>
<path d="M42.4341 50.029C42.8524 50.076 43.2731 50.0994 43.6941 50.099C45.2455 50.14 46.7791 49.7602 48.1321 49" stroke="#000014" stroke-width="1.3" stroke-linecap="round" stroke-linejoin="round"/>
<path d="M51.1001 48.0412C51.5391 47.9882 51.9809 47.9625 52.4231 47.9642C53.8615 47.9242 55.286 48.2544 56.5601 48.9232" stroke="#000014" stroke-width="1.3" stroke-linecap="round" stroke-linejoin="round"/>
<path d="M58.667 49.8052C58.905 49.8682 59.157 49.9242 59.437 49.9732" stroke="#000014" stroke-width="1.3" stroke-linecap="round" stroke-linejoin="round"/>
<path d="M62.9092 49.9521C65.1282 49.5531 65.9192 48.4541 68.2012 48.0901" stroke="#000014" stroke-width="1.3" stroke-linecap="round" stroke-linejoin="round"/>
<path d="M10.5 54.999C12.691 54.649 13.503 53.599 15.547 53.186" stroke="#000014" stroke-width="1.3" stroke-linecap="round" stroke-linejoin="round"/>
<path d="M18.9421 53.074C21.0421 53.34 21.8821 54.187 23.4291 54.705" stroke="#000014" stroke-width="1.3" stroke-linecap="round" stroke-linejoin="round"/>
<path d="M25.55 55.104C25.76 55.104 25.977 55.104 26.25 55.104" stroke="#000014" stroke-width="1.3" stroke-linecap="round" stroke-linejoin="round"/>
<path d="M29.533 54.6001L30.03 54.3831" stroke="#000014" stroke-width="1.3" stroke-linecap="round" stroke-linejoin="round"/>
<path d="M38.01 53.396C39.7085 54.4866 41.676 55.0851 43.694 55.125C44.3757 55.131 45.0561 55.0653 45.724 54.929" stroke="#000014" stroke-width="1.3" stroke-linecap="round" stroke-linejoin="round"/>
<path d="M48.5452 53.8161C48.8398 53.6773 49.1411 53.5535 49.4482 53.4451" stroke="#000014" stroke-width="1.3" stroke-linecap="round" stroke-linejoin="round"/>
<path d="M51.968 52.9971H52.402C56.133 52.9971 56.679 54.5581 59.493 55.0061" stroke="#000014" stroke-width="1.3" stroke-linecap="round" stroke-linejoin="round"/>
<path d="M15.9531 58.1421C16.4903 58.0584 17.0335 58.0186 17.5771 58.0231C18.5059 58.0053 19.4318 58.1329 20.3211 58.4011" stroke="#000014" stroke-width="1.3" stroke-linecap="round" stroke-linejoin="round"/>
<path d="M23.457 59.7451C23.9128 59.8954 24.3814 60.0032 24.857 60.0671" stroke="#000014" stroke-width="1.3" stroke-linecap="round" stroke-linejoin="round"/>
<path d="M26.9641 60.1371C30.4641 59.9341 30.8421 58.2331 34.3141 58.0371" stroke="#000014" stroke-width="1.3" stroke-linecap="round" stroke-linejoin="round"/>
<path d="M37.03 58.219C37.4344 58.3016 37.8304 58.4211 38.213 58.576" stroke="#000014" stroke-width="1.3" stroke-linecap="round" stroke-linejoin="round"/>
<path d="M40.3201 59.542C41.3909 59.9748 42.5395 60.1821 43.6941 60.151C44.4236 60.1609 45.1519 60.0857 45.8641 59.927" stroke="#000014" stroke-width="1.3" stroke-linecap="round" stroke-linejoin="round"/>
<path d="M48.3701 58.9331C49.616 58.295 51.0029 57.982 52.4021 58.0231C52.953 58.0204 53.5031 58.0626 54.0471 58.1491" stroke="#000014" stroke-width="1.3" stroke-linecap="round" stroke-linejoin="round"/>
<path d="M27.9231 65.0582C29.0348 64.837 30.1048 64.4425 31.0941 63.8892" stroke="#000014" stroke-width="1.3" stroke-linecap="round" stroke-linejoin="round"/>
<path d="M33.908 63.098C34.2708 63.0622 34.6353 63.0459 35 63.049C38.731 63.049 39.27 64.61 42.084 65.058" stroke="#000014" stroke-width="1.3" stroke-linecap="round" stroke-linejoin="round"/>
<path d="M36.6311 68.2011C36.0917 68.1152 35.5462 68.0731 35.0001 68.0751C34.4585 68.0726 33.9177 68.1147 33.3831 68.2011" stroke="#000014" stroke-width="1.3" stroke-linecap="round" stroke-linejoin="round"/>
</svg>
