<svg width="35" height="35" viewBox="0 0 35 35" fill="none" xmlns="http://www.w3.org/2000/svg">
<path d="M20.3546 1.76577C19.4285 1.59753 18.4745 1.51095 17.4993 1.51095C16.5242 1.51095 15.5702 1.59753 14.644 1.76577C14.7682 1.6792 14.8711 1.53872 14.9495 1.31167C14.9969 1.17283 15.0736 0.924541 15.1455 0.681155C15.2664 0.272789 15.5931 0 15.9606 0H19.0397C19.4056 0 19.7339 0.272789 19.8548 0.681155C19.9267 0.924541 20.0018 1.17283 20.0492 1.31167C20.1276 1.53872 20.2305 1.6792 20.3546 1.76577Z" fill="#0246D0"/>
<path d="M7.15615 5.30764C7.22312 5.16879 7.24272 4.99401 7.19699 4.75716C7.16922 4.61178 7.11041 4.35859 7.04997 4.11194C6.95197 3.69868 7.09735 3.29848 7.41587 3.1139L10.0833 1.57517C10.4002 1.39223 10.82 1.4641 11.1287 1.75812C11.3133 1.9329 11.5028 2.10932 11.6139 2.20569C11.7935 2.35924 11.9504 2.43111 12.099 2.44744C10.2744 3.10083 8.60503 4.07764 7.15615 5.30764Z" fill="#0246D0"/>
<path d="M5.30558 7.15754C4.07558 8.60479 3.10041 10.2726 2.44702 12.0939C2.43069 11.9468 2.35882 11.7917 2.20527 11.6153C2.1089 11.5025 1.93085 11.3131 1.75607 11.1285C1.46368 10.8198 1.39017 10.4016 1.57475 10.0831L3.11348 7.41563C3.29806 7.09873 3.69826 6.95172 4.11152 7.05136C4.35817 7.11017 4.61136 7.16897 4.75674 7.19674C4.99359 7.24248 5.16674 7.22451 5.30558 7.15754Z" fill="#0246D0"/>
<path d="M1.50932 17.499C1.50932 18.4725 1.59589 19.4265 1.76414 20.3527C1.67757 20.2285 1.53709 20.1272 1.31167 20.0505C1.17283 20.0015 0.924539 19.9263 0.681153 19.8545C0.272788 19.7336 0 19.4069 0 19.0394V15.9603C0 15.5927 0.272788 15.2661 0.681153 15.1452C0.924539 15.0733 1.17283 14.9965 1.31167 14.9492C1.53709 14.8708 1.67757 14.7695 1.76414 14.647C1.59589 15.5731 1.50932 16.5255 1.50932 17.499Z" fill="#0246D0"/>
<path d="M5.30232 27.8395C5.16511 27.7758 4.99032 27.7578 4.75674 27.8035C4.61136 27.8313 4.35817 27.8901 4.11152 27.9489C3.69662 28.0486 3.29806 27.9015 3.11348 27.583L1.57475 24.9172C1.39017 24.5987 1.46368 24.1789 1.75607 23.8702C1.93248 23.6872 2.1089 23.4961 2.20527 23.385C2.35882 23.2086 2.43069 23.0534 2.44702 22.9048C3.10041 24.7261 4.07559 26.3939 5.30232 27.8395Z" fill="#0246D0"/>
<path d="M11.1628 32.1837L10.9733 32.4696L10.333 33.5134C10.2448 33.5003 10.1615 33.4709 10.0831 33.4252L7.41563 31.8848C7.09873 31.7019 6.95172 31.3017 7.05136 30.8884C7.11017 30.6401 7.16897 30.3886 7.19674 30.2432C7.24248 30.0063 7.22288 29.8315 7.15917 29.6943C8.35486 30.7103 9.70247 31.5532 11.1628 32.1837Z" fill="#0246D0"/>
<path d="M20.3528 33.2339C20.2286 33.3205 20.1274 33.4626 20.0506 33.6864C20.0016 33.8268 19.9264 34.0751 19.8546 34.3185C19.7337 34.7269 19.407 34.9997 19.0395 34.9997H15.9604C15.5929 34.9997 15.2662 34.7269 15.1453 34.3185C15.0734 34.0751 14.9967 33.8268 14.9493 33.6864C14.8709 33.4626 14.7696 33.3221 14.6471 33.2339C15.5733 33.4021 16.5256 33.4887 17.4991 33.4887C18.4727 33.4887 19.4266 33.4021 20.3528 33.2339Z" fill="#0246D0"/>
<path d="M27.5826 31.8848L24.9168 33.4252C24.5983 33.6081 24.1785 33.5362 23.8698 33.2422C23.6852 33.0674 23.4957 32.891 23.3846 32.793C23.2066 32.6378 23.0481 32.5676 22.9011 32.5529C24.7241 31.8995 26.3935 30.9227 27.8407 29.6943C27.7754 29.8315 27.7558 30.0063 27.8015 30.2432C27.8293 30.3886 27.8881 30.6401 27.9485 30.8884C28.0482 31.3017 27.9012 31.7019 27.5826 31.8848Z" fill="#0246D0"/>
<path d="M33.4258 24.9171L31.8854 27.5829C31.7025 27.9014 31.3023 28.0484 30.889 27.9488C30.6407 27.8883 30.3875 27.8312 30.2438 27.8018C30.0069 27.756 29.8322 27.7756 29.6949 27.841C30.9233 26.3937 31.9001 24.7243 32.5535 22.9014C32.5682 23.0484 32.6384 23.2068 32.7936 23.3849C32.89 23.4959 33.068 23.6854 33.2428 23.87C33.5352 24.1787 33.6087 24.5985 33.4258 24.9171Z" fill="#0246D0"/>
<path d="M35.0006 15.9603V19.0394C35.0006 19.4069 34.7278 19.7336 34.3195 19.8545C34.0761 19.9263 33.8278 20.0015 33.6873 20.0505C33.4635 20.1272 33.3214 20.2285 33.2349 20.3527C33.4031 19.4265 33.4897 18.4725 33.4897 17.499C33.4897 16.5255 33.4031 15.5731 33.2349 14.647C33.3231 14.7695 33.4635 14.8708 33.6873 14.9492C33.8278 14.9982 34.0761 15.0733 34.3195 15.1452C34.7278 15.2661 35.0006 15.5927 35.0006 15.9603Z" fill="#0246D0"/>
<path d="M33.2425 11.1285C33.0677 11.3131 32.8897 11.5025 32.7933 11.6136C32.6381 11.7917 32.5679 11.9501 32.5532 12.0988C31.8998 10.2758 30.923 8.60479 29.693 7.15754C29.8318 7.22451 30.005 7.24248 30.2435 7.19674C30.3888 7.16897 30.6404 7.11017 30.8887 7.05136C31.3019 6.95172 31.7021 7.09873 31.8851 7.41563L33.4254 10.0831C33.6084 10.4 33.5349 10.8198 33.2425 11.1285Z" fill="#0246D0"/>
<path d="M27.8013 4.75698C27.7556 4.99384 27.7752 5.16862 27.8405 5.30583C26.3933 4.07746 24.7222 3.10065 22.8993 2.44727C23.0479 2.43257 23.2064 2.36069 23.3844 2.20552C23.4955 2.10914 23.685 1.93273 23.8696 1.75631C24.1783 1.46392 24.5981 1.39042 24.9166 1.575L27.5824 3.11372C27.901 3.2983 28.048 3.6985 27.9483 4.11177C27.8879 4.35842 27.8307 4.61161 27.8013 4.75698Z" fill="#0246D0"/>
<path d="M17.4991 2.05908C8.97079 2.05908 2.05798 8.97189 2.05798 17.5002C2.05798 23.8887 5.93746 29.3722 11.4684 31.7211L11.7575 31.2833L13.0038 29.3951L13.3681 28.843C8.73884 27.1556 5.43271 22.7142 5.43271 17.5002C5.43271 11.115 10.3919 5.88792 16.6693 5.46322L17.4289 4.79023L19.7386 2.74024L20.2319 2.30083C19.3449 2.14239 18.4318 2.05908 17.4991 2.05908ZM22.6853 2.95258L22.5498 3.45079L21.9683 5.59716L21.8 6.22277C26.341 7.95588 29.5671 12.3515 29.5671 17.5002C29.5671 18.4754 29.4511 19.4244 29.2323 20.3326L29.6896 21.1199L30.0457 21.7341L29.3221 22.1833L28.3486 22.7877C26.39 26.8028 22.2672 29.5682 17.4991 29.5682H17.4223L16.4537 30.1693H16.452L13.6327 31.9204H13.6311L13.0397 32.2879C14.4511 32.7143 15.9489 32.9429 17.4991 32.9429C26.0274 32.9429 32.9418 26.0285 32.9418 17.5002C32.9418 10.7916 28.6638 5.08262 22.6853 2.95258Z" fill="#0246D0"/>
<path d="M17.4992 2.57227C9.25513 2.57227 2.57263 9.25476 2.57263 17.4988C2.57263 23.7076 6.3639 29.0327 11.7576 31.282L13.0039 29.3937L13.3682 28.8416C8.73895 27.1542 5.43282 22.7129 5.43282 17.4988C5.43282 11.1136 10.392 5.88656 16.6694 5.46186L17.429 4.78887L19.7387 2.73888C19.0085 2.62944 18.2604 2.57227 17.4992 2.57227ZM22.5499 3.44944L21.9684 5.5958L21.8001 6.22142C26.3411 7.95452 29.5672 12.3502 29.5672 17.4988C29.5672 18.474 29.4513 19.4231 29.2324 20.3313L29.6897 21.1186L30.0458 21.7328L29.3222 22.182L28.3487 22.7864C26.3901 26.8014 22.2673 29.5669 17.4992 29.5669H17.4224L16.4538 30.168H16.4522L13.6328 31.9191C14.8661 32.2506 16.1614 32.4271 17.4992 32.4271C25.7433 32.4271 32.4274 25.7429 32.4274 17.4988C32.4274 11.0271 28.3095 5.51903 22.5499 3.44944Z" fill="#0246D0"/>
<path d="M16.6696 5.46254L17.4292 4.78955C10.4413 4.82549 4.78784 10.5018 4.78784 17.4995C4.78784 22.939 8.20178 27.5796 13.0042 29.3944L13.3684 28.8423C8.73919 27.1549 5.43306 22.7135 5.43306 17.4995C5.43306 11.1143 10.3923 5.88724 16.6696 5.46254ZM21.9686 5.59648L21.8004 6.2221C26.3414 7.9552 29.5675 12.3508 29.5675 17.4995C29.5675 18.4747 29.4515 19.4237 29.2326 20.3319L29.69 21.1193C30.0297 19.9726 30.2127 18.7573 30.2127 17.4995C30.2127 12.0519 26.7857 7.40472 21.9686 5.59648ZM17.4994 29.5675H17.4227L16.454 30.1687C16.7987 30.1981 17.1466 30.2128 17.4994 30.2128C22.867 30.2128 27.457 26.887 29.3224 22.1827L28.3489 22.787C26.3904 26.8021 22.2675 29.5675 17.4994 29.5675Z" fill="#0246D0"/>
<path d="M24.4096 13.0005L8.73755 13.1583L17.3828 20.659L29.3837 21.5669L24.4096 13.0005Z" fill="#0246D0"/>
<path d="M22.7911 0.68457L8.73743 13.1592L17.3827 20.6599L22.7911 0.68457Z" fill="#0246D0"/>
<path d="M11.3823 32.7388L24.4095 13.0005L29.3836 21.5669L11.3823 32.7388Z" fill="#0246D0"/>
</svg>
