<svg width="22" height="18" viewBox="0 0 22 18" fill="none" xmlns="http://www.w3.org/2000/svg">
<path d="M1.375 0.125C0.893067 0.125 0.5 0.518067 0.5 1C0.5 1.48193 0.893067 1.875 1.375 1.875H3.31641L5.61328 11.0625C5.80811 11.8418 6.50537 12.375 7.30859 12.375H17.3438C18.1333 12.375 18.8032 11.8521 19.0117 11.0898L21.2812 2.75H6.625L7.0625 4.5H19.0117L17.3438 10.625H7.30859L5.01172 1.4375C4.81689 0.658203 4.11963 0.125 3.31641 0.125H1.375ZM16.25 12.375C14.811 12.375 13.625 13.561 13.625 15C13.625 16.439 14.811 17.625 16.25 17.625C17.689 17.625 18.875 16.439 18.875 15C18.875 13.561 17.689 12.375 16.25 12.375ZM8.375 12.375C6.93604 12.375 5.75 13.561 5.75 15C5.75 16.439 6.93604 17.625 8.375 17.625C9.81396 17.625 11 16.439 11 15C11 13.561 9.81396 12.375 8.375 12.375ZM8.375 14.125C8.86719 14.125 9.25 14.5078 9.25 15C9.25 15.4922 8.86719 15.875 8.375 15.875C7.88281 15.875 7.5 15.4922 7.5 15C7.5 14.5078 7.88281 14.125 8.375 14.125ZM16.25 14.125C16.7422 14.125 17.125 14.5078 17.125 15C17.125 15.4922 16.7422 15.875 16.25 15.875C15.7578 15.875 15.375 15.4922 15.375 15C15.375 14.5078 15.7578 14.125 16.25 14.125Z" fill="white"/>
</svg>
