<svg width="70" height="70" viewBox="0 0 70 70" fill="none" xmlns="http://www.w3.org/2000/svg">
<path d="M31.92 58.5131L32.97 30.2471" stroke="#0246D0" stroke-width="1.3" stroke-linecap="round" stroke-linejoin="round"/>
<path d="M36.869 25.739L38.073 58.478" stroke="#0246D0" stroke-width="1.3" stroke-linecap="round" stroke-linejoin="round"/>
<path d="M38.724 22.2322C39.76 23.1002 40.551 24.5002 40.103 25.2002C39.655 25.9002 38.171 26.0052 36.939 25.3892" stroke="#0246D0" stroke-width="1.3" stroke-linecap="round" stroke-linejoin="round"/>
<path d="M36.344 23.6672C36.4751 23.2661 36.6845 22.8949 36.96 22.5752" stroke="#0246D0" stroke-width="1.3" stroke-linecap="round" stroke-linejoin="round"/>
<path d="M37.002 22.9111V1.79907L38.213 1.98807C38.5683 2.05989 38.8899 2.24706 39.1279 2.52048C39.3659 2.7939 39.5069 3.13827 39.529 3.50007L41.3 13.2161C41.5115 14.923 41.2221 16.6547 40.467 18.2001L38.696 22.2321" stroke="#0246D0" stroke-width="1.3" stroke-linecap="round" stroke-linejoin="round"/>
<path d="M39.76 23.1001L54.369 24.4021L53.095 25.9001C52.5131 26.6654 51.6889 27.2108 50.757 27.4471L41.811 28.9871C41.2345 29.1241 40.6288 29.0658 40.0891 28.8213C39.5494 28.5767 39.1061 28.1599 38.829 27.6361L37.856 25.9001" stroke="#0246D0" stroke-width="1.3" stroke-linecap="round" stroke-linejoin="round"/>
<path d="M36.715 25.3121L21.203 44.6111L21.259 42.9171C21.3355 41.8394 21.69 40.7999 22.288 39.9001L29.477 28.6021C30.3984 27.0771 31.7075 25.8235 33.271 24.9691L37.016 23.1001" stroke="#0246D0" stroke-width="1.3" stroke-linecap="round" stroke-linejoin="round"/>
<path d="M36.953 19.8241L28.819 16.5691L24.185 18.7671L24.108 22.5891L31 26.5" stroke="#0246D0" stroke-width="1.3" stroke-linecap="round" stroke-linejoin="round"/>
<path d="M26.46 19.9011L34.839 23.9681" stroke="#0246D0" stroke-width="1.3" stroke-linecap="round" stroke-linejoin="round"/>
<path d="M37.898 53.7112C37.898 54.6002 36.687 55.3002 35.182 55.3002C34.8852 55.2903 34.5899 55.2528 34.3 55.1882" stroke="#0246D0" stroke-width="1.3" stroke-linecap="round" stroke-linejoin="round"/>
<path d="M37.527 33.292C37.919 33.418 38.318 33.565 38.738 33.726" stroke="#0246D0" stroke-width="1.3" stroke-linecap="round" stroke-linejoin="round"/>
<path d="M41.083 34.6711C41.9317 34.9134 42.8115 35.0289 43.694 35.0141C44.2448 35.0165 44.795 34.9744 45.339 34.8881" stroke="#0246D0" stroke-width="1.3" stroke-linecap="round" stroke-linejoin="round"/>
<path d="M19.215 38.031C19.6607 38.1029 20.0988 38.2154 20.524 38.367" stroke="#0246D0" stroke-width="1.3" stroke-linecap="round" stroke-linejoin="round"/>
<path d="M25.158 39.9911C25.5303 40.0263 25.9041 40.0427 26.278 40.0401C27.7611 40.0807 29.2289 39.7307 30.534 39.0251" stroke="#0246D0" stroke-width="1.3" stroke-linecap="round" stroke-linejoin="round"/>
<path d="M37.457 38.2131C39.466 38.7661 40.257 39.9071 43.176 40.0331" stroke="#0246D0" stroke-width="1.3" stroke-linecap="round" stroke-linejoin="round"/>
<path d="M45.843 39.8232C46.039 39.7812 46.228 39.7252 46.403 39.6692" stroke="#0246D0" stroke-width="1.3" stroke-linecap="round" stroke-linejoin="round"/>
<path d="M48.832 38.612C49.4515 38.3315 50.1061 38.1361 50.778 38.031" stroke="#0246D0" stroke-width="1.3" stroke-linecap="round" stroke-linejoin="round"/>
<path d="M7.24503 44.9471C7.78223 45.0308 8.32536 45.0706 8.86903 45.066C10.4672 45.0968 12.0441 44.6953 13.433 43.9041" stroke="#0246D0" stroke-width="1.3" stroke-linecap="round" stroke-linejoin="round"/>
<path d="M16.737 42.9662C17.003 42.9662 17.276 42.9662 17.577 42.9662C18.0331 42.9643 18.489 42.9901 18.942 43.0432" stroke="#0246D0" stroke-width="1.3" stroke-linecap="round" stroke-linejoin="round"/>
<path d="M21.581 43.834C23.0062 44.6625 24.6297 45.0883 26.278 45.066C27.2018 45.0857 28.123 44.9606 29.008 44.695" stroke="#0246D0" stroke-width="1.3" stroke-linecap="round" stroke-linejoin="round"/>
<path d="M39.368 44.0161C39.606 44.1351 39.837 44.2471 40.068 44.3591" stroke="#0246D0" stroke-width="1.3" stroke-linecap="round" stroke-linejoin="round"/>
<path d="M42.483 45.0102C42.847 45.0102 43.246 45.0662 43.694 45.0662C46.41 45.0662 47.432 44.2402 48.874 43.6172" stroke="#0246D0" stroke-width="1.3" stroke-linecap="round" stroke-linejoin="round"/>
<path d="M51.968 42.9452H52.402C53.6223 42.912 54.8347 43.1511 55.951 43.6452" stroke="#0246D0" stroke-width="1.3" stroke-linecap="round" stroke-linejoin="round"/>
<path d="M58.016 44.562C58.24 44.646 58.478 44.723 58.716 44.793" stroke="#0246D0" stroke-width="1.3" stroke-linecap="round" stroke-linejoin="round"/>
<path d="M61.362 45.066C61.8309 45.0594 62.2987 45.0196 62.762 44.947" stroke="#0246D0" stroke-width="1.3" stroke-linecap="round" stroke-linejoin="round"/>
<path d="M1.79901 48.0901C4.59901 48.5381 5.14501 50.0991 8.86901 50.0991H9.32401" stroke="#0246D0" stroke-width="1.3" stroke-linecap="round" stroke-linejoin="round"/>
<path d="M12.236 49.4902C12.579 49.3432 12.901 49.1892 13.216 49.0352" stroke="#0246D0" stroke-width="1.3" stroke-linecap="round" stroke-linejoin="round"/>
<path d="M15.799 48.1111C16.3861 48.0089 16.9811 47.9597 17.577 47.9641C18.5259 47.9429 19.4718 48.0776 20.377 48.3631" stroke="#0246D0" stroke-width="1.3" stroke-linecap="round" stroke-linejoin="round"/>
<path d="M22.659 49.3782C23.7967 49.8828 25.0342 50.1221 26.278 50.0782C26.9308 50.0825 27.5825 50.0239 28.224 49.9032" stroke="#0246D0" stroke-width="1.3" stroke-linecap="round" stroke-linejoin="round"/>
<path d="M37.695 48.335C38.4818 48.6198 39.2488 48.9565 39.991 49.343" stroke="#0246D0" stroke-width="1.3" stroke-linecap="round" stroke-linejoin="round"/>
<path d="M42.434 50.029C42.8524 50.076 43.273 50.0994 43.694 50.099C45.2454 50.14 46.779 49.7602 48.132 49" stroke="#0246D0" stroke-width="1.3" stroke-linecap="round" stroke-linejoin="round"/>
<path d="M51.1 48.0412C51.539 47.9882 51.9808 47.9625 52.423 47.9642C53.8614 47.9242 55.2859 48.2544 56.56 48.9232" stroke="#0246D0" stroke-width="1.3" stroke-linecap="round" stroke-linejoin="round"/>
<path d="M58.667 49.8052C58.905 49.8682 59.157 49.9242 59.437 49.9732" stroke="#0246D0" stroke-width="1.3" stroke-linecap="round" stroke-linejoin="round"/>
<path d="M62.909 49.9521C65.128 49.5531 65.919 48.4541 68.201 48.0901" stroke="#0246D0" stroke-width="1.3" stroke-linecap="round" stroke-linejoin="round"/>
<path d="M10.5 54.999C12.691 54.649 13.503 53.599 15.547 53.186" stroke="#0246D0" stroke-width="1.3" stroke-linecap="round" stroke-linejoin="round"/>
<path d="M18.942 53.074C21.042 53.34 21.882 54.187 23.429 54.705" stroke="#0246D0" stroke-width="1.3" stroke-linecap="round" stroke-linejoin="round"/>
<path d="M25.55 55.104C25.76 55.104 25.977 55.104 26.25 55.104" stroke="#0246D0" stroke-width="1.3" stroke-linecap="round" stroke-linejoin="round"/>
<path d="M29.533 54.6001L30.03 54.3831" stroke="#0246D0" stroke-width="1.3" stroke-linecap="round" stroke-linejoin="round"/>
<path d="M38.01 53.396C39.7085 54.4866 41.676 55.0851 43.694 55.125C44.3757 55.131 45.0561 55.0653 45.724 54.929" stroke="#0246D0" stroke-width="1.3" stroke-linecap="round" stroke-linejoin="round"/>
<path d="M48.545 53.8161C48.8396 53.6773 49.141 53.5535 49.448 53.4451" stroke="#0246D0" stroke-width="1.3" stroke-linecap="round" stroke-linejoin="round"/>
<path d="M51.968 52.9971H52.402C56.133 52.9971 56.679 54.5581 59.493 55.0061" stroke="#0246D0" stroke-width="1.3" stroke-linecap="round" stroke-linejoin="round"/>
<path d="M15.953 58.1421C16.4902 58.0584 17.0333 58.0186 17.577 58.0231C18.5058 58.0053 19.4316 58.1329 20.321 58.4011" stroke="#0246D0" stroke-width="1.3" stroke-linecap="round" stroke-linejoin="round"/>
<path d="M23.457 59.7451C23.9127 59.8954 24.3814 60.0032 24.857 60.0671" stroke="#0246D0" stroke-width="1.3" stroke-linecap="round" stroke-linejoin="round"/>
<path d="M26.964 60.1371C30.464 59.9341 30.842 58.2331 34.314 58.0371" stroke="#0246D0" stroke-width="1.3" stroke-linecap="round" stroke-linejoin="round"/>
<path d="M37.03 58.219C37.4344 58.3016 37.8304 58.4211 38.213 58.576" stroke="#0246D0" stroke-width="1.3" stroke-linecap="round" stroke-linejoin="round"/>
<path d="M40.32 59.542C41.3908 59.9748 42.5394 60.1821 43.694 60.151C44.4236 60.1609 45.1518 60.0857 45.864 59.927" stroke="#0246D0" stroke-width="1.3" stroke-linecap="round" stroke-linejoin="round"/>
<path d="M48.37 58.9331C49.6159 58.295 51.0028 57.982 52.402 58.0231C52.9528 58.0204 53.503 58.0626 54.047 58.1491" stroke="#0246D0" stroke-width="1.3" stroke-linecap="round" stroke-linejoin="round"/>
<path d="M27.923 65.0582C29.0347 64.837 30.1047 64.4425 31.094 63.8892" stroke="#0246D0" stroke-width="1.3" stroke-linecap="round" stroke-linejoin="round"/>
<path d="M33.908 63.098C34.2709 63.0622 34.6354 63.0459 35 63.049C38.731 63.049 39.27 64.61 42.084 65.058" stroke="#0246D0" stroke-width="1.3" stroke-linecap="round" stroke-linejoin="round"/>
<path d="M36.631 68.2011C36.0916 68.1152 35.5462 68.0731 35 68.0751C34.4584 68.0726 33.9176 68.1147 33.383 68.2011" stroke="#0246D0" stroke-width="1.3" stroke-linecap="round" stroke-linejoin="round"/>
</svg>
