<svg width="52" height="56" viewBox="0 0 52 56" fill="none" xmlns="http://www.w3.org/2000/svg">
<path d="M23.7365 7.40137L34.4176 1.15942L37.6766 3.10306" stroke="#000014" stroke-width="1.3" stroke-linecap="round" stroke-linejoin="round"/>
<path d="M47.06 8.47046L51.1822 10.9073V35.3936L17.7646 55.0003L1.01762 45.423L1 20.6842L7.41222 16.9438" stroke="#000014" stroke-width="1.3" stroke-linecap="round" stroke-linejoin="round"/>
<path d="M51.1822 10.9065L17.7646 30.3076V54.9994" stroke="#000014" stroke-width="1.3" stroke-linecap="round" stroke-linejoin="round"/>
<path d="M36.1439 29.4746L36.097 34.1252" stroke="#000014" stroke-width="1.3" stroke-linecap="round" stroke-linejoin="round"/>
<path d="M3.24899 21.8821L17.7646 30.3084" stroke="#000014" stroke-width="1.3" stroke-linecap="round" stroke-linejoin="round"/>
<path d="M26.0676 44.3837C26.0676 44.3837 21.1821 46.0043 23.6073 38.6174C23.6073 38.6174 25.9561 33.174 26.5433 30.144C26.5433 30.144 31.6754 30.285 31.9279 35.5522C32.0995 36.9307 31.9011 38.33 31.3532 39.6065C30.8052 40.883 29.9274 41.9907 28.8099 42.8158C28.8099 42.8158 32.7911 36.4095 27.9408 34.1018C28.1861 35.9696 27.8778 37.8684 27.0541 39.5627C27.0541 39.5627 27.0952 38.3472 26.1792 38.0125C26.1792 38.0125 25.592 39.8622 25.2984 40.7959C25.2867 40.7959 24.3236 43.5498 26.0676 44.3837Z" stroke="#000014" stroke-linecap="round" stroke-linejoin="round"/>
<path fill-rule="evenodd" clip-rule="evenodd" d="M46.5609 19.7737L42.5034 22.1166L40.2015 30.1495L42.9438 28.57L40.6361 36.732L47.8763 22.9387L44.4764 24.8999L46.5609 19.7737Z" stroke="#000014" stroke-linecap="round" stroke-linejoin="round"/>
<path d="M22.0746 5.68628V15.1344" stroke="#000014" stroke-width="1.3" stroke-linecap="round" stroke-linejoin="round"/>
<path d="M16.7369 15.1344V5.68628" stroke="#000014" stroke-width="1.3" stroke-linecap="round" stroke-linejoin="round"/>
<path d="M19.4087 7.51299C20.8843 7.51299 22.0805 6.69537 22.0805 5.68679C22.0805 4.67821 20.8843 3.8606 19.4087 3.8606C17.9331 3.8606 16.7369 4.67821 16.7369 5.68679C16.7369 6.69537 17.9331 7.51299 19.4087 7.51299Z" stroke="#000014" stroke-width="1.3" stroke-linecap="round" stroke-linejoin="round"/>
<path d="M22.0746 15.1411C22.0746 16.1511 20.9002 16.9673 19.4087 16.9673C17.9172 16.9673 16.7369 16.1511 16.7369 15.1411" stroke="#000014" stroke-width="1.3" stroke-linecap="round" stroke-linejoin="round"/>
<path d="M14.6231 9.5564V18.9986" stroke="#000014" stroke-width="1.3" stroke-linecap="round" stroke-linejoin="round"/>
<path d="M9.28543 18.9986V9.5564" stroke="#000014" stroke-width="1.3" stroke-linecap="round" stroke-linejoin="round"/>
<path d="M11.9572 11.3831C13.4328 11.3831 14.629 10.5655 14.629 9.55691C14.629 8.54833 13.4328 7.73071 11.9572 7.73071C10.4816 7.73071 9.28543 8.54833 9.28543 9.55691C9.28543 10.5655 10.4816 11.3831 11.9572 11.3831Z" stroke="#000014" stroke-width="1.3" stroke-linecap="round" stroke-linejoin="round"/>
<path d="M14.6231 18.9985C14.6231 20.0085 13.4487 20.8306 11.9572 20.8306C10.4657 20.8306 9.28543 20.0085 9.28543 18.9985" stroke="#000014" stroke-width="1.3" stroke-linecap="round" stroke-linejoin="round"/>
<path d="M13.7012 52.6862V42.1577L4.59372 36.8376V47.4073" stroke="#000014" stroke-width="1.3" stroke-linecap="round" stroke-linejoin="round"/>
<path d="M13.7012 44.8005L4.59372 39.4805" stroke="#000014" stroke-width="1.3" stroke-linecap="round" stroke-linejoin="round"/>
<path d="M13.7012 47.4426L4.59372 42.1226" stroke="#000014" stroke-width="1.3" stroke-linecap="round" stroke-linejoin="round"/>
<path d="M13.7012 50.0854L4.59372 44.7654" stroke="#000014" stroke-width="1.3" stroke-linecap="round" stroke-linejoin="round"/>
<path d="M30.2425 17.402C30.5314 17.5697 30.8571 17.6639 31.1909 17.6762C31.5247 17.6885 31.8564 17.6185 32.1568 17.4724L33.3665 16.7737C33.6831 16.5501 33.9344 16.2462 34.0943 15.8932C34.2543 15.5402 34.3173 15.1509 34.2766 14.7654C34.2163 13.6869 33.9026 12.6377 33.3608 11.7032C32.8191 10.7686 32.0646 9.97497 31.1586 9.38667C30.8457 9.15927 30.4778 9.01928 30.0929 8.9811C29.708 8.94292 29.3198 9.00791 28.9683 9.16941L27.7528 9.87405C27.4678 10.0692 27.2362 10.3327 27.0793 10.6404C26.9223 10.9482 26.845 11.2903 26.8544 11.6357" stroke="#000014" stroke-width="1.3" stroke-linecap="round" stroke-linejoin="round"/>
<path d="M24.2708 19.4684V14.2952C24.2404 14.0081 24.2869 13.7181 24.4056 13.455C24.5242 13.1918 24.7108 12.965 24.9461 12.7978L28.0407 11.0362C28.3025 10.9163 28.5915 10.8677 28.8782 10.8956C29.1649 10.9234 29.4392 11.0266 29.6731 11.1948C30.3443 11.6337 30.903 12.2243 31.3038 12.919C31.7047 13.6136 31.9366 14.3928 31.9808 15.1936C32.0112 15.4806 31.9647 15.7706 31.846 16.0338C31.7274 16.2969 31.5408 16.5237 31.3055 16.691L29.3971 17.9241L29.3677 19.2923C29.3677 20.2553 28.2344 21.0539 26.8369 21.0539C25.4394 21.0539 24.3002 20.2788 24.3002 19.2923" stroke="#000014" stroke-width="1.3" stroke-linecap="round" stroke-linejoin="round"/>
<path d="M43.0554 9.75037C43.3442 9.91572 43.669 10.008 44.0016 10.0193C44.3342 10.0305 44.6645 9.96039 44.9638 9.81495L46.1734 9.11619C46.4901 8.89268 46.7413 8.58873 46.9013 8.23572C47.0613 7.88271 47.1242 7.4934 47.0836 7.10796C47.0262 6.03155 46.7155 4.98389 46.1768 4.05025C45.638 3.1166 44.8864 2.32336 43.9832 1.73507C43.6704 1.50485 43.3014 1.36318 42.9149 1.32495C42.5284 1.28672 42.1388 1.35334 41.787 1.51781L40.5539 2.22245C40.2674 2.41655 40.0344 2.67967 39.8763 2.98754C39.7183 3.29541 39.6403 3.63811 39.6496 3.98405" stroke="#000014" stroke-width="1.3" stroke-linecap="round" stroke-linejoin="round"/>
<path d="M30.8181 9.16272L40.8533 3.35529C41.1154 3.23497 41.4049 3.18678 41.6919 3.21568C41.9788 3.24458 42.2529 3.34954 42.4857 3.51972C43.1572 3.95703 43.7161 4.54648 44.117 5.24026C44.518 5.93403 44.7497 6.71257 44.7934 7.51268C44.8239 7.79973 44.7774 8.08972 44.6587 8.35286C44.54 8.61601 44.3535 8.84283 44.1182 9.01004L34.2767 14.7646" stroke="#000014" stroke-width="1.3" stroke-linecap="round" stroke-linejoin="round"/>
<path d="M43.9831 1.73498C43.9831 1.73498 44.6467 1.42377 45.1575 1.14778C45.4196 1.02746 45.7091 0.979256 45.9961 1.00816C46.283 1.03706 46.5571 1.14202 46.7899 1.3122C47.4622 1.75009 48.0215 2.34047 48.4225 3.03534C48.8235 3.7302 49.0548 4.50991 49.0976 5.31104V9.5154" stroke="#000014" stroke-width="1.3" stroke-linecap="round" stroke-linejoin="round"/>
</svg>
