<svg width="15" height="15" viewBox="0 0 15 15" fill="none" xmlns="http://www.w3.org/2000/svg">
<path d="M11.875 0H3.125C1.4 0 0 1.4 0 3.125V11.875C0 13.6 1.4 15 3.125 15H11.875C13.6 15 15 13.6 15 11.875V3.125C15 1.4 13.6 0 11.875 0ZM3.125 1.25H11.875C12.9062 1.25 13.75 2.09375 13.75 3.125V5.00625H1.25V3.125C1.25 2.09375 2.09375 1.25 3.125 1.25ZM1.25 11.875V6.25625H5.03125V13.75H3.125C2.09375 13.75 1.25 12.9062 1.25 11.875ZM11.875 13.75H6.28125V6.25625H13.75V11.875C13.75 12.9062 12.9062 13.75 11.875 13.75Z" fill="white"/>
</svg>
