<svg width="19" height="14" viewBox="0 0 19 14" fill="none" xmlns="http://www.w3.org/2000/svg">
<path d="M18.0892 6.06726L12.2558 0.233927C12.0987 0.0821285 11.8882 -0.00186718 11.6697 3.15021e-05C11.4512 0.00193018 11.2422 0.0895712 11.0877 0.244078C10.9331 0.398585 10.8455 0.607595 10.8436 0.826092C10.8417 1.04459 10.9257 1.25509 11.0775 1.41226L15.4883 5.82309H0.833333C0.61232 5.82309 0.400358 5.91089 0.244078 6.06717C0.0877973 6.22345 0 6.43541 0 6.65643C0 6.87744 0.0877973 7.0894 0.244078 7.24568C0.400358 7.40196 0.61232 7.48976 0.833333 7.48976H15.4883L11.0775 11.9006C10.9979 11.9775 10.9344 12.0694 10.8907 12.1711C10.8471 12.2728 10.8241 12.3821 10.8231 12.4928C10.8222 12.6034 10.8432 12.7131 10.8851 12.8156C10.927 12.918 10.9889 13.011 11.0672 13.0893C11.1454 13.1675 11.2385 13.2294 11.3409 13.2713C11.4433 13.3132 11.553 13.3343 11.6637 13.3333C11.7743 13.3323 11.8837 13.3094 11.9853 13.2657C12.087 13.222 12.179 13.1585 12.2558 13.0789L18.0892 7.24559C18.2454 7.08932 18.3332 6.8774 18.3332 6.65643C18.3332 6.43546 18.2454 6.22353 18.0892 6.06726Z" fill="#040404"/>
</svg>
