<svg width="16" height="16" viewBox="0 0 16 16" fill="none" xmlns="http://www.w3.org/2000/svg">
<g clip-path="url(#clip0_654_1483)">
<path d="M7.65674 7.99997C7.65674 6.52722 8.85064 5.33331 10.3234 5.33331C11.7961 5.33331 12.9901 6.52725 12.9901 7.99997C12.9901 9.47275 11.7961 10.6666 10.3234 10.6666C8.85061 10.6666 7.65674 9.47272 7.65674 7.99997Z" fill="#00BCFF"/>
<path d="M2.32324 13.3333C2.32324 11.8606 3.51715 10.6667 4.9899 10.6667L6.41099 9.91638L7.65655 10.6667V13.3333C7.65655 14.8061 6.46265 16 4.9899 16C3.51715 16 2.32324 14.8061 2.32324 13.3333Z" fill="#00CF7F"/>
<path d="M7.65663 0L6.20557 2.52094L7.65663 5.33331H10.2859C11.7587 5.33331 12.9525 4.13941 12.9525 2.66666C12.9525 1.19391 11.7586 0 10.2859 0H7.65663Z" fill="#FF7361"/>
<path d="M2.28564 2.66666C2.28564 4.13941 3.47955 5.33331 4.9523 5.33331L6.3669 5.87969L7.65636 5.33331V0H4.95227C3.47955 0 2.28564 1.19391 2.28564 2.66666Z" fill="#FF4D12"/>
<path d="M2.32324 8C2.32324 9.47278 3.51715 10.6667 4.9899 10.6667H7.65655V5.33331H4.9899C3.51715 5.33331 2.32324 6.52725 2.32324 8Z" fill="#B659FF"/>
</g>
<defs>
<clipPath id="clip0_654_1483">
<rect width="15.2758" height="16" fill="white"/>
</clipPath>
</defs>
</svg>
