<svg width="17" height="17" viewBox="0 0 17 17" fill="none" xmlns="http://www.w3.org/2000/svg">
<path d="M15.625 1.875H8.03625C7.75672 0.799844 6.78641 0 5.625 0C4.46359 0 3.49328 0.799844 3.21375 1.875H0.625C0.279844 1.875 0 2.15484 0 2.5C0 2.84516 0.279844 3.125 0.625 3.125H3.21375C3.49328 4.20016 4.46359 5 5.625 5C6.78641 5 7.75672 4.20016 8.03625 3.125H15.625C15.9702 3.125 16.25 2.84516 16.25 2.5C16.25 2.15484 15.9702 1.875 15.625 1.875ZM5.625 3.75C4.93563 3.75 4.375 3.18937 4.375 2.5C4.375 1.81062 4.93563 1.25 5.625 1.25C6.31437 1.25 6.875 1.81062 6.875 2.5C6.875 3.18937 6.31437 3.75 5.625 3.75ZM15.625 7.5H13.0363C12.7567 6.42484 11.7864 5.625 10.625 5.625C9.46359 5.625 8.49328 6.42484 8.21375 7.5H0.625C0.279844 7.5 0 7.77984 0 8.125C0 8.47016 0.279844 8.75 0.625 8.75H8.21375C8.49328 9.82516 9.46359 10.625 10.625 10.625C11.7864 10.625 12.7567 9.82516 13.0363 8.75H15.625C15.9702 8.75 16.25 8.47016 16.25 8.125C16.25 7.77984 15.9702 7.5 15.625 7.5ZM10.625 9.375C9.93563 9.375 9.375 8.81437 9.375 8.125C9.375 7.43563 9.93563 6.875 10.625 6.875C11.3144 6.875 11.875 7.43563 11.875 8.125C11.875 8.81437 11.3144 9.375 10.625 9.375ZM15.625 13.125H8.03625C7.75672 12.0498 6.78641 11.25 5.625 11.25C4.46359 11.25 3.49328 12.0498 3.21375 13.125H0.625C0.279844 13.125 0 13.4048 0 13.75C0 14.0952 0.279844 14.375 0.625 14.375H3.21375C3.49328 15.4502 4.46359 16.25 5.625 16.25C6.78641 16.25 7.75672 15.4502 8.03625 14.375H15.625C15.9702 14.375 16.25 14.0952 16.25 13.75C16.25 13.4048 15.9702 13.125 15.625 13.125ZM5.625 15C4.93563 15 4.375 14.4394 4.375 13.75C4.375 13.0606 4.93563 12.5 5.625 12.5C6.31437 12.5 6.875 13.0606 6.875 13.75C6.875 14.4394 6.31437 15 5.625 15Z" fill="white"/>
</svg>
