<svg width="53" height="66" viewBox="0 0 53 66" fill="none" xmlns="http://www.w3.org/2000/svg">
<path d="M1 17.4041V55.7033C1 58.0738 2.61316 60.4443 5.75617 62.262C12.0649 65.9048 22.2664 65.92 28.5373 62.262C31.6879 60.4443 33.2405 58.0587 33.2177 55.6654V17.4041" stroke="#000014" stroke-width="1.3" stroke-linecap="round" stroke-linejoin="round"/>
<path d="M28.4691 10.8455C34.7855 14.4883 34.8157 20.3805 28.5449 24.0007C22.274 27.6208 12.0649 27.6056 5.75617 24.0007C-0.552566 20.3957 -0.590434 14.4656 5.68044 10.8455" stroke="#000014" stroke-width="1.3" stroke-linecap="round" stroke-linejoin="round"/>
<path d="M6.73317 19.608C4.13545 16.9875 4.76406 13.6097 8.63412 11.3907C13.2918 8.72483 20.8502 8.73997 25.5306 11.3907C30.2111 14.0414 30.2414 18.4038 25.5836 21.0697C22.3498 22.9327 17.692 23.4856 13.5872 22.7434" stroke="#000014" stroke-width="1.3" stroke-linecap="round" stroke-linejoin="round"/>
<path d="M16.3212 16.9724C17.7467 17.1374 19.189 16.8737 20.4639 16.2151C22.3195 15.1548 22.3043 13.428 20.4639 12.3602C19.4207 11.8353 18.2691 11.562 17.1013 11.562C15.9335 11.562 14.7819 11.8353 13.7387 12.3602C13.3855 12.5209 13.0765 12.7647 12.8378 13.0706C12.5991 13.3765 12.4379 13.7356 12.3679 14.1172V17.0785C12.4112 17.4921 12.5618 17.8872 12.8049 18.2247C13.0481 18.5621 13.3752 18.8301 13.7538 19.0021C14.7947 19.5304 15.9454 19.8056 17.1127 19.8056C18.2799 19.8056 19.4307 19.5304 20.4715 19.0021C20.8515 18.8329 21.1795 18.5655 21.4218 18.2274C21.6641 17.8892 21.8118 17.4927 21.8499 17.0785V17.0785V14.4277" stroke="#000014" stroke-width="1.3" stroke-linecap="round" stroke-linejoin="round"/>
<path d="M20.3655 59.6192C22.9305 59.3566 25.4297 58.6466 27.7497 57.5213V29.0752C25.4302 30.2031 22.931 30.9157 20.3655 31.1806V59.6192Z" stroke="#000014" stroke-width="1.3" stroke-linecap="round" stroke-linejoin="round"/>
<path d="M27.7497 50.2505C25.4297 51.3758 22.9305 52.0858 20.3655 52.3483" stroke="#000014" stroke-width="1.3" stroke-linecap="round" stroke-linejoin="round"/>
<path d="M20.3655 45.8579C22.9312 45.5989 25.431 44.8887 27.7497 43.76" stroke="#000014" stroke-width="1.3" stroke-linecap="round" stroke-linejoin="round"/>
<path d="M20.3655 38.6101C22.9305 38.3475 25.4297 37.6375 27.7497 36.5122" stroke="#000014" stroke-width="1.3" stroke-linecap="round" stroke-linejoin="round"/>
<path fill-rule="evenodd" clip-rule="evenodd" d="M49.728 1L41.9273 5.49867L37.4968 20.9486L42.7679 17.9117L38.3299 33.604L52.2575 7.08153L45.7216 10.8531L49.728 1Z" stroke="#000014" stroke-width="1.3" stroke-linecap="round" stroke-linejoin="round"/>
</svg>
