<svg width="80" height="80" viewBox="0 0 80 80" fill="none" xmlns="http://www.w3.org/2000/svg">
<path d="M28.7253 60.4324L22.0366 64.1027L32.0733 70.0001L42.1099 64.2419L37.5018 61.6485" stroke="#000014" stroke-width="1.3" stroke-linecap="round" stroke-linejoin="round"/>
<path d="M28.7253 49.8752V64.0731L32.1832 66.0877L35.4286 64.0731V57.9778" stroke="#000014" stroke-width="1.3" stroke-linecap="round" stroke-linejoin="round"/>
<path d="M32.1099 52.718L32.1831 66.088" stroke="#000014" stroke-width="1.3" stroke-linecap="round" stroke-linejoin="round"/>
<path d="M49.0623 52.5128L55.6703 56.3883L65.7069 50.6374L61.1062 48.0439" stroke="#000014" stroke-width="1.3" stroke-linecap="round" stroke-linejoin="round"/>
<path d="M52.6007 50.6299L55.7729 52.4834L59.0256 50.4614V46.52" stroke="#000014" stroke-width="1.3" stroke-linecap="round" stroke-linejoin="round"/>
<path d="M55.751 48.4836L55.773 52.4836" stroke="#000014" stroke-width="1.3" stroke-linecap="round" stroke-linejoin="round"/>
<path d="M11.3553 35.2969L11.9341 42.7254L23.6044 50.2786L27.9414 49.2163" stroke="#000014" stroke-width="1.3" stroke-linecap="round" stroke-linejoin="round"/>
<path d="M74.2051 37.3772L39.0476 58.5347" stroke="#000014" stroke-width="1.3" stroke-linecap="round" stroke-linejoin="round"/>
<path d="M67.8022 31.9045L32.4396 52.9888" stroke="#000014" stroke-width="1.3" stroke-linecap="round" stroke-linejoin="round"/>
<path d="M61.392 26.4248L25.8242 47.4431" stroke="#000014" stroke-width="1.3" stroke-linecap="round" stroke-linejoin="round"/>
<path d="M54.9816 20.9524L19.2161 41.8975" stroke="#000014" stroke-width="1.3" stroke-linecap="round" stroke-linejoin="round"/>
<path d="M48.5787 15.4727L12.608 36.3445" stroke="#000014" stroke-width="1.3" stroke-linecap="round" stroke-linejoin="round"/>
<path d="M42.1685 10L6 30.7985" stroke="#000014" stroke-width="1.3" stroke-linecap="round" stroke-linejoin="round"/>
<path d="M6 30.7986L39.0476 58.5349" stroke="#000014" stroke-width="1.3" stroke-linecap="round" stroke-linejoin="round"/>
<path d="M13.2307 26.6372L46.0805 54.3075" stroke="#000014" stroke-width="1.3" stroke-linecap="round" stroke-linejoin="round"/>
<path d="M20.4689 22.4836L53.1136 50.0734" stroke="#000014" stroke-width="1.3" stroke-linecap="round" stroke-linejoin="round"/>
<path d="M27.6996 18.3223L60.1465 45.8388" stroke="#000014" stroke-width="1.3" stroke-linecap="round" stroke-linejoin="round"/>
<path d="M34.9377 14.1611L67.1722 41.6117" stroke="#000014" stroke-width="1.3" stroke-linecap="round" stroke-linejoin="round"/>
<path d="M42.1685 10L74.2051 37.3773" stroke="#000014" stroke-width="1.3" stroke-linecap="round" stroke-linejoin="round"/>
</svg>
