<svg width="80" height="80" viewBox="0 0 80 80" fill="none" xmlns="http://www.w3.org/2000/svg">
<path d="M43.6583 24.0063C44.0231 23.5839 44.3943 23.1743 44.7783 22.7839" stroke="#000014" stroke-width="1.3" stroke-linecap="round" stroke-linejoin="round"/>
<path d="M47.7415 20.2565C48.1895 19.9365 48.6439 19.6165 49.1111 19.3733C52.5286 17.4021 55.6133 17.2549 57.8148 18.6053C60.0164 19.9557 61.2323 22.5924 61.2323 26.3747C61.2249 27.2315 61.1586 28.0869 61.0339 28.9346C63.3891 27.5779 65.5138 27.4691 67.0434 28.4034C68.5729 29.3378 69.4049 31.1554 69.4049 33.7729C69.4049 39.1103 65.6546 45.5998 61.0339 48.2685L28.8876 66.828C26.4685 68.2232 24.2861 68.332 22.7246 67.372C21.163 66.412 20.3054 64.5497 20.3054 61.8745C20.3054 56.3963 24.1453 49.7149 28.8876 47.0077C29.3803 46.7234 29.8963 46.4814 30.43 46.2846C30.43 46.195 30.43 46.1118 30.43 46.0158C30.43 42.0991 33.1755 37.3376 36.5738 35.3792C36.9801 35.1432 37.4089 34.9481 37.8538 34.7969C38.4414 32.7423 39.2638 30.7624 40.3049 28.8962" stroke="#000014" stroke-width="1.3" stroke-linecap="round" stroke-linejoin="round"/>
<path d="M67.0433 28.4156L63.165 26.0349" stroke="#000014" stroke-width="1.3" stroke-linecap="round" stroke-linejoin="round"/>
<path d="M59.1331 33.1196C58.9604 33.6124 58.7556 34.1052 58.538 34.5852" stroke="#000014" stroke-width="1.3" stroke-linecap="round" stroke-linejoin="round"/>
<path d="M56.6179 37.9197C55.8963 38.945 55.0706 39.893 54.1539 40.7484" stroke="#000014" stroke-width="1.3" stroke-linecap="round" stroke-linejoin="round"/>
<path d="M50.7558 43.123L42.9032 47.6861" stroke="#000014" stroke-width="1.3" stroke-linecap="round" stroke-linejoin="round"/>
<path d="M39.6904 49.5093L36.6697 51.2564" stroke="#000014" stroke-width="1.3" stroke-linecap="round" stroke-linejoin="round"/>
<path d="M33.5338 53.0679L28.4587 56.0054" stroke="#000014" stroke-width="1.3" stroke-linecap="round" stroke-linejoin="round"/>
<path d="M25.2844 57.8296L24.3564 58.3608" stroke="#000014" stroke-width="1.3" stroke-linecap="round" stroke-linejoin="round"/>
<path d="M22.7245 67.3846L13.4191 61.6631C11.9216 60.748 11 58.8472 11 56.1657C11 50.6938 14.8399 44.006 19.5822 41.2989C20.0737 41.0141 20.5899 40.7742 21.1245 40.5821C21.1245 40.4861 21.1245 40.4029 21.1245 40.3069C21.1245 36.3902 23.8701 31.6287 27.262 29.6704C27.6678 29.4351 28.0967 29.2421 28.5419 29.0944C30.3019 22.861 34.6858 16.6275 39.8248 13.658C43.2167 11.6805 46.3079 11.5333 48.5222 12.89L57.8276 18.6051" stroke="#000014" stroke-width="1.3" stroke-linecap="round" stroke-linejoin="round"/>
<path d="M20.1326 60.8054L19.5822 61.119C19.3966 61.2278 19.211 61.3302 19.019 61.4262" stroke="#000014" stroke-width="1.3" stroke-linecap="round" stroke-linejoin="round"/>
<path d="M30.4298 46.2971L22.7885 41.5996" stroke="#000014" stroke-width="1.3" stroke-linecap="round" stroke-linejoin="round"/>
<path d="M37.8216 34.809L30.3658 30.2332" stroke="#000014" stroke-width="1.3" stroke-linecap="round" stroke-linejoin="round"/>
</svg>
